<svg width="145" height="13" viewBox="0 0 145 13" fill="none" xmlns="http://www.w3.org/2000/svg">
<path d="M8.2261 0.958584V11H7.54639C7.43895 11 7.34785 10.9813 7.27311 10.9439C7.20303 10.9066 7.13296 10.8435 7.06289 10.7547L1.25386 3.1869C1.26321 3.30368 1.27021 3.41814 1.27489 3.53025C1.27956 3.64237 1.28189 3.74748 1.28189 3.84558V11H0.0906569V0.958584H0.791384C0.852113 0.958584 0.9035 0.963255 0.945544 0.972598C0.987587 0.97727 1.02496 0.988949 1.05766 1.00763C1.09036 1.02165 1.12306 1.04501 1.15576 1.07771C1.18846 1.10574 1.2235 1.14311 1.26087 1.18982L7.0699 8.75067C7.06055 8.62921 7.05121 8.51242 7.04187 8.4003C7.0372 8.28352 7.03486 8.17373 7.03486 8.07096V0.958584H8.2261ZM16.9876 9.89285L16.9806 11H10.7932V0.958584H16.9806V2.06573H12.1526V5.40119H16.0626V6.4663H12.1526V9.89285H16.9876ZM31.8941 0.958584L28.7619 11H27.5426L24.999 3.34106C24.9756 3.26631 24.9523 3.1869 24.9289 3.10281C24.9102 3.01872 24.8892 2.92996 24.8658 2.83653C24.8425 2.92996 24.8191 3.01872 24.7958 3.10281C24.7724 3.1869 24.7491 3.26631 24.7257 3.34106L22.168 11H20.9488L17.8165 0.958584H18.9447C19.0662 0.958584 19.1666 0.988949 19.246 1.04968C19.3301 1.11041 19.3838 1.18749 19.4072 1.28092L21.4813 8.26016C21.514 8.38629 21.5444 8.52176 21.5724 8.66658C21.6051 8.8114 21.6355 8.96556 21.6635 9.12906C21.6962 8.96556 21.7289 8.8114 21.7616 8.66658C21.799 8.51709 21.8387 8.38162 21.8807 8.26016L24.2422 1.28092C24.2702 1.2015 24.3239 1.12909 24.4034 1.06369C24.4874 0.99362 24.5879 0.958584 24.7047 0.958584H25.0971C25.2185 0.958584 25.3166 0.988949 25.3914 1.04968C25.4661 1.11041 25.5222 1.18749 25.5596 1.28092L27.914 8.26016C27.956 8.38162 27.9934 8.51242 28.0261 8.65257C28.0635 8.79271 28.0985 8.93986 28.1312 9.09402C28.1546 8.93986 28.1803 8.79271 28.2083 8.65257C28.2363 8.51242 28.2667 8.38162 28.2994 8.26016L30.3806 1.28092C30.4039 1.19683 30.4553 1.12209 30.5347 1.05669C30.6188 0.991284 30.7192 0.958584 30.836 0.958584H31.8941ZM40.0055 6.99885V11H38.6461V6.99885L34.9673 0.958584H36.1585C36.2799 0.958584 36.3757 0.988949 36.4458 1.04968C36.5159 1.10574 36.5766 1.18048 36.628 1.27391L38.9264 5.17696C39.0104 5.34046 39.0875 5.49462 39.1576 5.63944C39.2277 5.77958 39.2884 5.92207 39.3398 6.06688C39.3912 5.92207 39.4496 5.77958 39.515 5.63944C39.5804 5.49462 39.6528 5.34046 39.7322 5.17696L42.0236 1.27391C42.0656 1.1945 42.124 1.12209 42.1988 1.05669C42.2735 0.991284 42.3693 0.958584 42.4861 0.958584H43.6843L40.0055 6.99885ZM53.7248 5.9828C53.7248 6.73491 53.6057 7.42629 53.3675 8.05695C53.1292 8.68293 52.7929 9.22249 52.3584 9.67563C51.924 10.1288 51.4008 10.4815 50.7888 10.7337C50.1815 10.9813 49.5088 11.1051 48.7707 11.1051C48.0326 11.1051 47.3599 10.9813 46.7526 10.7337C46.1453 10.4815 45.6244 10.1288 45.19 9.67563C44.7555 9.22249 44.4192 8.68293 44.1809 8.05695C43.9427 7.42629 43.8236 6.73491 43.8236 5.9828C43.8236 5.23068 43.9427 4.54163 44.1809 3.91565C44.4192 3.285 44.7555 2.7431 45.19 2.28997C45.6244 1.83216 46.1453 1.47712 46.7526 1.22486C47.3599 0.972598 48.0326 0.846467 48.7707 0.846467C49.5088 0.846467 50.1815 0.972598 50.7888 1.22486C51.4008 1.47712 51.924 1.83216 52.3584 2.28997C52.7929 2.7431 53.1292 3.285 53.3675 3.91565C53.6057 4.54163 53.7248 5.23068 53.7248 5.9828ZM52.3304 5.9828C52.3304 5.36616 52.2463 4.81258 52.0781 4.32207C51.91 3.83156 51.6717 3.41814 51.3634 3.08179C51.0551 2.74077 50.6814 2.47916 50.2422 2.29697C49.8031 2.11478 49.3126 2.02369 48.7707 2.02369C48.2335 2.02369 47.7453 2.11478 47.3062 2.29697C46.8671 2.47916 46.491 2.74077 46.178 3.08179C45.8697 3.41814 45.6314 3.83156 45.4633 4.32207C45.2951 4.81258 45.211 5.36616 45.211 5.9828C45.211 6.59944 45.2951 7.15301 45.4633 7.64352C45.6314 8.12936 45.8697 8.54278 46.178 8.8838C46.491 9.22015 46.8671 9.47942 47.3062 9.66161C47.7453 9.83913 48.2335 9.92789 48.7707 9.92789C49.3126 9.92789 49.8031 9.83913 50.2422 9.66161C50.6814 9.47942 51.0551 9.22015 51.3634 8.8838C51.6717 8.54278 51.91 8.12936 52.0781 7.64352C52.2463 7.15301 52.3304 6.59944 52.3304 5.9828ZM58.4517 5.82163C58.8441 5.82163 59.1898 5.77491 59.4888 5.68148C59.7924 5.58338 60.0447 5.44791 60.2455 5.27506C60.4511 5.09754 60.6052 4.88733 60.708 4.64441C60.8108 4.40149 60.8622 4.13288 60.8622 3.83857C60.8622 3.24062 60.666 2.78982 60.2736 2.48617C59.8812 2.18252 59.2925 2.0307 58.5077 2.0307H57.0222V5.82163H58.4517ZM63.0905 11H61.8852C61.6376 11 61.4555 10.9042 61.3387 10.7127L58.732 7.12498C58.6525 7.01286 58.5661 6.93345 58.4727 6.88673C58.3839 6.83535 58.2438 6.80965 58.0523 6.80965H57.0222V11H55.6698V0.958584H58.5077C59.1431 0.958584 59.692 1.02398 60.1544 1.15479C60.6169 1.28092 60.9976 1.46544 61.2966 1.70836C61.6003 1.95128 61.8245 2.24559 61.9693 2.59128C62.1141 2.9323 62.1865 3.31536 62.1865 3.74047C62.1865 4.0955 62.1305 4.42718 62.0184 4.7355C61.9063 5.04382 61.7428 5.32178 61.5279 5.56937C61.3176 5.81229 61.0584 6.02017 60.7501 6.19301C60.4464 6.36586 60.1007 6.49666 59.713 6.58542C59.8858 6.68352 60.0353 6.826 60.1614 7.01286L63.0905 11ZM65.8087 5.35915H66.3202C66.4977 5.35915 66.6402 5.33813 66.7476 5.29608C66.8551 5.24937 66.9532 5.17229 67.0419 5.06484L70.3844 1.28092C70.4778 1.15946 70.5759 1.07537 70.6787 1.02866C70.7815 0.981941 70.9076 0.958584 71.0571 0.958584H72.2063L68.3803 5.28207C68.2869 5.39418 68.1958 5.48762 68.107 5.56236C68.0229 5.63243 67.9319 5.69083 67.8338 5.73754C67.9599 5.77958 68.0743 5.84265 68.1771 5.92674C68.2799 6.00615 68.3803 6.11126 68.4784 6.24206L72.4726 11H71.2953C71.2066 11 71.1295 10.9953 71.0641 10.986C71.0034 10.972 70.9497 10.9533 70.9029 10.9299C70.8562 10.9019 70.8142 10.8715 70.7768 10.8388C70.7441 10.8015 70.7114 10.7594 70.6787 10.7127L67.2171 6.72557C67.1237 6.60878 67.0232 6.52703 66.9158 6.48031C66.8084 6.42893 66.6449 6.40323 66.4253 6.40323H65.8087V11H64.4562V0.958584H65.8087V5.35915ZM73.364 12.6958C73.3266 12.6631 73.301 12.6327 73.2869 12.6047C73.2729 12.5766 73.2659 12.5416 73.2659 12.4996C73.2659 12.4669 73.2753 12.4342 73.2939 12.4015C73.3173 12.3688 73.343 12.3384 73.371 12.3104C73.4177 12.259 73.4761 12.1912 73.5462 12.1071C73.6209 12.0231 73.6957 11.9226 73.7704 11.8058C73.8452 11.6937 73.9129 11.5676 73.9736 11.4274C74.0391 11.292 74.0858 11.1472 74.1138 10.993C74.0998 10.9977 74.0834 11 74.0647 11C74.0507 11 74.0367 11 74.0227 11C73.7798 11 73.5812 10.9206 73.4271 10.7618C73.2776 10.5982 73.2028 10.3904 73.2028 10.1381C73.2028 9.91854 73.2776 9.73168 73.4271 9.57752C73.5812 9.42336 73.7845 9.34628 74.0367 9.34628C74.1769 9.34628 74.3007 9.37198 74.4081 9.42336C74.5155 9.47475 74.6043 9.54716 74.6744 9.64059C74.7491 9.72935 74.8052 9.83446 74.8426 9.95592C74.8799 10.0727 74.8986 10.2012 74.8986 10.3413C74.8986 10.5515 74.8682 10.7711 74.8075 11C74.7515 11.2242 74.665 11.4461 74.5482 11.6657C74.4361 11.8899 74.2983 12.1071 74.1348 12.3174C73.9713 12.5276 73.7845 12.7215 73.5742 12.899L73.364 12.6958ZM88.6318 0.958584V11H87.9521C87.8446 11 87.7535 10.9813 87.6788 10.9439C87.6087 10.9066 87.5386 10.8435 87.4686 10.7547L81.6595 3.1869C81.6689 3.30368 81.6759 3.41814 81.6806 3.53025C81.6852 3.64237 81.6876 3.74748 81.6876 3.84558V11H80.4963V0.958584H81.1971C81.2578 0.958584 81.3092 0.963255 81.3512 0.972598C81.3933 0.97727 81.4306 0.988949 81.4633 1.00763C81.496 1.02165 81.5287 1.04501 81.5614 1.07771C81.5941 1.10574 81.6292 1.14311 81.6665 1.18982L87.4756 8.75067C87.4662 8.62921 87.4569 8.51242 87.4475 8.4003C87.4429 8.28352 87.4405 8.17373 87.4405 8.07096V0.958584H88.6318ZM94.9687 6.99885V11H93.6093V6.99885L89.9305 0.958584H91.1218C91.2432 0.958584 91.339 0.988949 91.4091 1.04968C91.4791 1.10574 91.5399 1.18048 91.5912 1.27391L93.8896 5.17696C93.9737 5.34046 94.0508 5.49462 94.1209 5.63944C94.1909 5.77958 94.2517 5.92207 94.3031 6.06688C94.3544 5.92207 94.4128 5.77958 94.4782 5.63944C94.5436 5.49462 94.616 5.34046 94.6955 5.17696L96.9868 1.27391C97.0289 1.1945 97.0873 1.12209 97.162 1.05669C97.2368 0.991284 97.3325 0.958584 97.4493 0.958584H98.6476L94.9687 6.99885ZM103.165 6.83068C103.165 6.47097 103.232 6.13228 103.368 5.81462C103.508 5.49696 103.695 5.22134 103.929 4.98776C104.162 4.74952 104.435 4.56266 104.748 4.42718C105.066 4.28704 105.402 4.21696 105.757 4.21696C106.117 4.21696 106.453 4.28704 106.766 4.42718C107.084 4.56266 107.36 4.74952 107.593 4.98776C107.832 5.22134 108.018 5.49696 108.154 5.81462C108.294 6.13228 108.364 6.47097 108.364 6.83068C108.364 7.19038 108.294 7.52907 108.154 7.84673C108.018 8.15972 107.832 8.433 107.593 8.66658C107.36 8.90016 107.084 9.08702 106.766 9.22716C106.453 9.36263 106.117 9.43037 105.757 9.43037C105.402 9.43037 105.066 9.36263 104.748 9.22716C104.435 9.08702 104.162 8.90016 103.929 8.66658C103.695 8.433 103.508 8.15972 103.368 7.84673C103.232 7.52907 103.165 7.19038 103.165 6.83068ZM122.159 9.92088C122.574 9.92088 122.946 9.85081 123.273 9.71066C123.6 9.57052 123.875 9.37431 124.1 9.12205C124.329 8.86979 124.501 8.56848 124.618 8.21811C124.74 7.86775 124.8 7.48235 124.8 7.06191V0.958584H126.153V7.06191C126.153 7.64118 126.059 8.17841 125.872 8.67359C125.69 9.16877 125.426 9.59855 125.081 9.96292C124.74 10.3226 124.321 10.6053 123.826 10.8108C123.331 11.0164 122.775 11.1191 122.159 11.1191C121.542 11.1191 120.986 11.0164 120.491 10.8108C119.996 10.6053 119.575 10.3226 119.23 9.96292C118.884 9.59855 118.618 9.16877 118.431 8.67359C118.249 8.17841 118.157 7.64118 118.157 7.06191V0.958584H119.51V7.05491C119.51 7.47534 119.568 7.86074 119.685 8.21111C119.806 8.56147 119.979 8.86278 120.204 9.11504C120.432 9.36731 120.71 9.56585 121.037 9.71066C121.369 9.85081 121.743 9.92088 122.159 9.92088ZM133.726 2.52821C133.683 2.59828 133.637 2.65201 133.585 2.68938C133.539 2.72208 133.48 2.73843 133.41 2.73843C133.331 2.73843 133.237 2.69872 133.13 2.61931C133.022 2.53989 132.887 2.45347 132.723 2.36004C132.565 2.26194 132.371 2.17318 132.142 2.09376C131.918 2.01435 131.644 1.97464 131.322 1.97464C131.018 1.97464 130.75 2.01668 130.516 2.10077C130.287 2.18018 130.093 2.28997 129.935 2.43011C129.78 2.57026 129.664 2.73609 129.584 2.92763C129.505 3.11449 129.465 3.3177 129.465 3.53726C129.465 3.81755 129.533 4.05113 129.668 4.23799C129.808 4.42017 129.991 4.57667 130.215 4.70747C130.444 4.83827 130.701 4.95273 130.986 5.05083C131.275 5.14426 131.57 5.24236 131.869 5.34513C132.172 5.44791 132.467 5.5647 132.752 5.6955C133.041 5.82163 133.298 5.9828 133.522 6.179C133.751 6.3752 133.933 6.61579 134.069 6.90075C134.209 7.18571 134.279 7.53607 134.279 7.95184C134.279 8.39096 134.204 8.80439 134.055 9.19212C133.905 9.57519 133.686 9.9092 133.396 10.1942C133.111 10.4791 132.759 10.7034 132.338 10.8669C131.922 11.0304 131.448 11.1121 130.916 11.1121C130.262 11.1121 129.668 10.9953 129.136 10.7618C128.603 10.5235 128.148 10.2035 127.769 9.80176L128.162 9.15709C128.199 9.1057 128.243 9.06366 128.295 9.03096C128.351 8.99359 128.412 8.9749 128.477 8.9749C128.538 8.9749 128.606 9.00059 128.68 9.05198C128.76 9.09869 128.848 9.15942 128.947 9.23417C129.045 9.30891 129.157 9.39066 129.283 9.47942C129.409 9.56818 129.552 9.64993 129.71 9.72468C129.874 9.79942 130.058 9.86249 130.264 9.91387C130.469 9.96059 130.701 9.98395 130.958 9.98395C131.28 9.98395 131.567 9.93957 131.82 9.85081C132.072 9.76205 132.284 9.63825 132.457 9.47942C132.635 9.31592 132.77 9.12205 132.864 8.89782C132.957 8.67359 133.004 8.42366 133.004 8.14804C133.004 7.84439 132.934 7.5968 132.794 7.40527C132.658 7.20907 132.478 7.04556 132.254 6.91476C132.03 6.78396 131.773 6.67418 131.483 6.58542C131.194 6.49199 130.899 6.39856 130.6 6.30513C130.301 6.20703 130.007 6.09491 129.717 5.96878C129.428 5.84265 129.171 5.67915 128.947 5.47827C128.722 5.2774 128.54 5.02747 128.4 4.72849C128.265 4.42485 128.197 4.05113 128.197 3.60733C128.197 3.2523 128.265 2.90894 128.4 2.57726C128.54 2.24559 128.741 1.95128 129.003 1.69435C129.269 1.43741 129.594 1.23187 129.977 1.07771C130.364 0.923547 130.808 0.846467 131.308 0.846467C131.869 0.846467 132.378 0.935226 132.836 1.11274C133.298 1.29026 133.704 1.54719 134.055 1.88354L133.726 2.52821ZM141.353 7.27213L139.777 3.1869C139.73 3.06544 139.681 2.92529 139.629 2.76646C139.578 2.60296 139.529 2.43011 139.482 2.24792C139.384 2.62631 139.284 2.94164 139.181 3.1939L137.604 7.27213H141.353ZM144.184 11H143.133C143.012 11 142.914 10.9696 142.839 10.9089C142.764 10.8482 142.708 10.7711 142.671 10.6777L141.732 8.25315H137.226L136.287 10.6777C136.259 10.7618 136.205 10.8365 136.126 10.9019C136.046 10.9673 135.948 11 135.832 11H134.78L138.796 0.958584H140.169L144.184 11Z" fill="#878786"/>
</svg>
