<svg width="23" height="21" viewBox="0 0 23 21" fill="none" xmlns="http://www.w3.org/2000/svg">
<path d="M10.6496 19.3575L10.9991 19.6998L11.3489 19.3578L12.7395 17.9985C15.3255 15.7602 17.5047 13.8528 19.0332 12.0336C20.5693 10.2053 21.5006 8.40639 21.5006 6.38045C21.5006 3.06139 18.8653 0.499822 15.5002 0.499822C13.8396 0.499822 12.1851 1.18481 10.9995 2.32807C9.81474 1.18474 8.1602 0.499822 6.49969 0.499822C3.13344 0.499822 0.49932 3.06145 0.49932 6.38045C0.49932 8.4064 1.43054 10.2053 2.96683 12.0336C4.49546 13.8528 6.67488 15.7602 9.26141 17.9984L10.6496 19.3575Z" fill="#8BC34A" stroke="#2D4A0A"/>
</svg>
