<svg width="12" height="18" viewBox="0 0 12 18" fill="none" xmlns="http://www.w3.org/2000/svg">
<path fill-rule="evenodd" clip-rule="evenodd" d="M10.5891 0.003696L7.95056 0C4.9847 0 3.06768 1.73615 3.06768 4.42369V6.46304H0.41384C0.185024 6.46304 0 6.62724 0 6.8305V9.78526C0 9.9876 0.185024 10.1518 0.41384 10.1518H3.06768V17.6093C3.06768 17.8117 3.2527 17.9759 3.4837 17.9759H6.94553C7.17434 17.9759 7.36155 17.8113 7.36155 17.6093V10.1518H10.4643C10.6931 10.1518 10.8792 9.9876 10.8792 9.78526L10.8803 6.8305C10.8803 6.73334 10.8365 6.63955 10.7588 6.57096C10.681 6.50179 10.5748 6.46304 10.4654 6.46304H7.36155V4.73397C7.36155 3.9034 7.58598 3.48121 8.8111 3.48121L10.5891 3.4806C10.819 3.4806 11.004 3.31638 11.004 3.11405V0.37023C11.004 0.167895 10.819 0.003696 10.5891 0.003696Z" fill="#8BC34A"/>
</svg>
