<svg width="42" height="42" viewBox="0 0 42 42" fill="none" xmlns="http://www.w3.org/2000/svg">
<path fill-rule="evenodd" clip-rule="evenodd" d="M21 1.00015C32.0456 1.00015 41.0001 9.95425 41.0001 21C41.0001 32.0457 32.0456 41.0001 21 41.0001C9.95434 41.0001 0.999852 32.0457 0.999852 21C0.999852 9.95425 9.95434 1.00015 21 1.00015Z" fill="#3B5998"/>
<path fill-rule="evenodd" clip-rule="evenodd" d="M26.5551 10.9957L23.6702 10.9917C20.4296 10.9917 18.3363 12.9268 18.3363 15.9225V18.1959H15.4361C15.1854 18.1959 14.9818 18.3785 14.9818 18.6058V21.8991C14.9818 22.1248 15.1854 22.3074 15.4361 22.3074H18.3352V30.6201C18.3352 30.8458 18.5388 31.0294 18.7895 31.0294H22.5732C22.8239 31.0294 23.0265 30.8455 23.0265 30.6201V22.3074H26.4182C26.6678 22.3074 26.8715 22.1248 26.8715 21.8991L26.8726 18.6058C26.8726 18.4972 26.8244 18.3927 26.7401 18.3164C26.6547 18.2389 26.5398 18.1959 26.4193 18.1959H23.0265V16.2688C23.0265 15.3426 23.2717 14.8721 24.6118 14.8721L26.5551 14.8715C26.8047 14.8715 27.0083 14.6885 27.0083 14.4628V11.4044C27.0083 11.1787 26.8047 10.9957 26.5551 10.9957Z" fill="white"/>
</svg>
