<svg width="42" height="43" viewBox="0 0 42 43" fill="none" xmlns="http://www.w3.org/2000/svg">
<path fill-rule="evenodd" clip-rule="evenodd" d="M21.0005 1.98995C32.0461 1.98995 40.9995 10.9444 40.9995 21.9901C40.9995 33.0358 32.0461 41.9899 21.0005 41.9899C9.95484 41.9899 1.00031 33.0358 1.00031 21.9901C1.00031 10.9444 9.95484 1.98995 21.0005 1.98995Z" fill="#DC4E41"/>
<path fill-rule="evenodd" clip-rule="evenodd" d="M18.6422 19.8994H27.9536V23.0107C27.0285 27.5755 22.8036 31.0115 17.9766 31.0115C12.4663 31.0115 7.99949 26.534 7.99949 21.0104C7.99949 15.4871 12.4663 11.0093 17.9766 11.0096C20.695 11.0096 23.1583 12.0996 24.9582 13.8672L22.7051 16.3222C21.4997 15.1002 19.8268 14.3432 17.9766 14.3432C14.3035 14.3432 11.3256 17.3281 11.3256 21.0104C11.3256 24.6927 14.3035 27.6779 17.9766 27.6779C20.9545 27.6779 23.4758 25.7158 24.3232 23.0107H18.6422V19.8994ZM32.0953 19.8939H34.0003V21.5304H32.0953V23.44H30.463V21.5304H28.558V19.8939H30.463V17.9846H32.0953V19.8939Z" fill="white"/>
</svg>
