<svg width="387" height="249" viewBox="0 0 387 249" fill="none" xmlns="http://www.w3.org/2000/svg">
<g filter="url(#filter0_d)">
<path fill-rule="evenodd" clip-rule="evenodd" d="M260.576 152.773C259.883 152.008 257.807 150.984 255.451 150.245C255.363 149.561 255.198 148.903 254.949 148.294C254.143 146.343 252.564 145.128 250.504 144.876C246.946 144.445 243.074 146.123 240.296 147.705C234.693 128.133 218.312 111.879 196.425 105.034C198.024 101.668 198.944 97.922 198.944 93.9494C198.944 79.6429 187.313 68 173.016 68C158.724 68 147.096 79.6429 147.096 93.9494C147.096 98.0646 148.082 101.94 149.788 105.401C142.358 107.864 135.347 111.418 129.28 115.971C122.388 112.371 114.862 112.426 109.766 116.234L107.17 118.171L115.729 129.649C111.479 135.527 108.435 141.937 106.66 148.758H103.042C97.5069 148.758 92.9995 153.269 92.9995 158.813V187.769C92.9995 193.314 97.5069 197.824 103.042 197.824H117.368C121.567 203.122 126.661 207.766 132.556 211.664V225.209C132.556 229.311 135.535 232.649 139.196 232.649H151.534C155.195 232.649 158.174 229.311 158.174 225.209V222.219C167.632 224.166 177.273 224.344 187.153 222.549V225.563C187.153 229.665 190.132 233 193.794 233H206.131C209.792 233 212.769 229.666 212.769 225.563V212.899C231.368 201.451 242.407 182.799 242.407 162.65C242.407 158.677 241.922 154.783 241.08 150.981C243.608 149.426 247.205 147.721 250.106 148.094C250.973 148.201 251.547 148.625 251.912 149.423C249.921 149.137 248.114 149.251 247.14 150.064C245.758 151.218 245.152 153.146 245.635 154.86C246.153 156.708 247.769 157.961 250.07 158.305C250.255 158.331 250.44 158.348 250.624 158.348C251.848 158.348 252.988 157.739 253.878 156.594C254.535 155.752 255.004 154.696 255.27 153.565C256.645 154.025 257.804 154.544 258.184 154.948C258.789 155.613 259.808 155.661 260.468 155.059C261.13 154.455 261.177 153.437 260.576 152.773ZM173.016 74.484C183.746 74.484 192.469 83.2168 192.469 93.9525C192.469 97.9576 191.253 101.684 189.174 104.779L189.063 104.934C188.976 105.064 188.876 105.18 188.784 105.307C188.413 105.822 188.018 106.317 187.603 106.787C187.492 106.917 187.376 107.04 187.263 107.167C186.852 107.607 186.425 108.029 185.981 108.427C185.88 108.515 185.783 108.609 185.684 108.696C184.546 109.671 183.317 110.517 181.998 111.201C181.953 111.226 181.909 111.246 181.863 111.269C181.264 111.577 180.652 111.848 180.028 112.092C179.891 112.146 179.752 112.192 179.613 112.244C179.069 112.444 178.516 112.613 177.952 112.762C177.778 112.807 177.606 112.856 177.428 112.898C176.877 113.025 176.317 113.121 175.758 113.206C175.576 113.232 175.404 113.268 175.225 113.287C174.492 113.369 173.758 113.421 173.012 113.421C172.274 113.421 171.543 113.372 170.814 113.287C170.661 113.271 170.513 113.239 170.357 113.22C169.768 113.138 169.186 113.035 168.606 112.899C168.473 112.87 168.344 112.83 168.215 112.798C167.606 112.64 167 112.462 166.408 112.244C166.327 112.212 166.24 112.183 166.159 112.154C163.39 111.097 160.865 109.416 158.81 107.218C158.755 107.16 158.706 107.102 158.651 107.04C158.188 106.538 157.755 106.007 157.346 105.449C157.247 105.31 157.136 105.174 157.035 105.034L156.861 104.794C154.776 101.694 153.559 97.9668 153.559 93.955C153.57 83.2168 162.292 74.484 173.016 74.484ZM207.856 208.281L206.131 209.283L206.292 225.56C206.292 226.068 206.104 226.399 205.995 226.516L193.968 226.558C193.877 226.496 193.629 226.149 193.629 225.56V214.487L189.654 215.414C178.046 218.117 166.709 217.874 155.758 214.999L151.698 213.936V225.206C151.698 225.799 151.446 226.147 151.533 226.165L139.377 226.208C139.286 226.147 139.034 225.799 139.034 225.206L139.028 211.156L139.614 208.45L137.675 207.248C131.256 203.26 125.83 198.341 121.549 192.634L120.578 191.341H103.042C101.077 191.341 99.4753 189.74 99.4753 187.767V158.81C99.4753 156.84 101.075 155.236 103.042 155.236H111.84L112.385 152.667C113.987 145.068 117.329 138.004 122.318 131.662L123.851 129.708L116.636 120.026C119.831 119.249 124.014 120.198 127.823 122.602L129.78 123.837L131.579 122.389C137.875 117.323 145.406 113.397 153.469 110.953C153.541 111.038 153.631 111.112 153.703 111.196C154.194 111.747 154.71 112.282 155.251 112.79C155.386 112.92 155.529 113.043 155.668 113.17C156.206 113.656 156.76 114.119 157.334 114.56C157.474 114.664 157.61 114.767 157.75 114.871C157.996 115.052 158.232 115.25 158.488 115.422C154.24 116.498 150.136 118.004 146.29 119.959C144.694 120.769 144.062 122.72 144.872 124.314C145.681 125.915 147.63 126.55 149.223 125.736C156.601 121.984 165.044 120.001 173.625 120.001C182.667 120.001 191.499 122.188 199.152 126.326C199.639 126.592 200.168 126.715 200.689 126.715C201.84 126.715 202.955 126.102 203.541 125.017C204.393 123.442 203.804 121.475 202.234 120.626C197.746 118.203 192.906 116.388 187.87 115.195C188.029 115.082 188.18 114.959 188.34 114.846C188.559 114.68 188.783 114.518 188.998 114.353C189.498 113.958 189.981 113.543 190.45 113.112C190.652 112.93 190.851 112.759 191.046 112.574C191.562 112.072 192.053 111.547 192.525 111.002C192.622 110.892 192.732 110.795 192.831 110.678C218.317 117.927 235.941 139.035 235.941 162.645C235.929 181.046 225.437 198.107 207.856 208.281ZM251.323 154.604C251.125 154.85 250.87 155.093 250.539 155.1C249.963 155.012 248.966 154.756 248.749 153.982C248.61 153.493 248.809 152.887 249.145 152.595C249.335 152.504 249.623 152.462 249.996 152.462C250.566 152.462 251.313 152.559 252.126 152.724C251.961 153.479 251.673 154.15 251.323 154.604ZM137.642 151.859C137.642 154.837 135.231 157.251 132.255 157.251C129.281 157.251 126.869 154.837 126.869 151.859C126.869 148.881 129.281 146.467 132.255 146.467C135.231 146.467 137.642 148.881 137.642 151.859Z" fill="#757575"/>
<path fill-rule="evenodd" clip-rule="evenodd" d="M173 71.8579C184.176 71.8579 193.263 81.0945 193.263 92.4493C193.263 96.686 191.995 100.627 189.83 103.9L189.714 104.065C189.623 104.202 189.518 104.325 189.425 104.458C189.037 105.004 188.626 105.528 188.194 106.025C188.079 106.162 187.958 106.292 187.84 106.426C187.411 106.892 186.966 107.338 186.503 107.759C186.399 107.852 186.298 107.951 186.194 108.043C185.01 109.075 183.729 109.97 182.357 110.693C182.31 110.72 182.262 110.741 182.215 110.765C181.591 111.091 180.954 111.378 180.303 111.635C180.161 111.693 180.016 111.741 179.871 111.796C179.305 112.008 178.728 112.187 178.142 112.345C177.959 112.393 177.781 112.444 177.596 112.488C177.022 112.623 176.439 112.725 175.856 112.814C175.668 112.842 175.487 112.88 175.3 112.9C174.537 112.986 173.773 113.041 172.996 113.041C172.228 113.041 171.465 112.99 170.706 112.9C170.548 112.883 170.393 112.849 170.231 112.828C169.618 112.743 169.009 112.633 168.406 112.489C168.268 112.458 168.133 112.417 167.999 112.383C167.365 112.215 166.734 112.027 166.117 111.797C166.032 111.763 165.943 111.732 165.858 111.701C162.974 110.584 160.345 108.805 158.203 106.481C158.146 106.419 158.096 106.358 158.038 106.293C157.556 105.761 157.104 105.2 156.679 104.61C156.574 104.462 156.459 104.319 156.355 104.171L156.173 103.917C154.001 100.637 152.735 96.6956 152.735 92.4521C152.746 81.0945 161.829 71.8579 173 71.8579ZM152.64 110.431C152.715 110.52 152.809 110.599 152.884 110.688C153.396 111.271 153.932 111.836 154.495 112.374C154.637 112.511 154.785 112.642 154.93 112.775C155.489 113.29 156.066 113.78 156.667 114.246C156.812 114.356 156.953 114.465 157.099 114.575C157.355 114.767 157.601 114.976 157.867 115.158C162.114 117.695 170.627 120.001 173.635 120.001C176.477 120.001 181.838 119.028 188.472 114.918C188.637 114.798 188.795 114.668 188.96 114.548C189.191 114.373 189.422 114.202 189.645 114.027C190.168 113.609 190.671 113.17 191.159 112.715C191.369 112.523 191.578 112.341 191.78 112.145C192.317 111.614 192.829 111.059 193.322 110.483C193.422 110.366 193.537 110.264 193.638 110.14C196.404 106.774 196.828 105.622 197.383 104.171C199.049 100.61 200.007 96.6482 200.007 92.4462C200.007 77.3144 187.891 65 173 65C158.113 65 146.001 77.3144 146.001 92.4462C146.001 96.7992 147.029 100.898 148.806 104.558M172.983 74.2397C182.9 74.2397 190.962 82.4107 190.962 92.4555C190.962 96.203 189.837 99.6894 187.916 102.585L187.814 102.73C187.733 102.851 187.641 102.96 187.556 103.079C187.214 103.561 186.848 104.025 186.464 104.464C186.362 104.586 186.256 104.701 186.151 104.819C185.771 105.231 185.374 105.626 184.965 105.998C184.873 106.081 184.783 106.168 184.69 106.25C183.639 107.163 182.504 107.954 181.285 108.594C181.244 108.618 181.201 108.636 181.16 108.657C180.607 108.946 180.04 109.2 179.465 109.427C179.338 109.479 179.21 109.521 179.08 109.57C178.578 109.758 178.067 109.916 177.546 110.055C177.384 110.097 177.226 110.142 177.06 110.182C176.552 110.3 176.036 110.391 175.517 110.47C175.35 110.494 175.19 110.528 175.024 110.546C174.347 110.622 173.669 110.671 172.98 110.671C172.298 110.671 171.621 110.626 170.949 110.546C170.808 110.531 170.67 110.501 170.526 110.482C169.982 110.407 169.444 110.31 168.908 110.183C168.786 110.155 168.666 110.119 168.546 110.088C167.984 109.94 167.425 109.774 166.876 109.57C166.802 109.54 166.721 109.513 166.646 109.485C164.088 108.497 161.755 106.923 159.854 104.868C159.804 104.813 159.759 104.759 159.707 104.701C159.281 104.231 158.879 103.734 158.503 103.212C158.41 103.082 158.308 102.955 158.215 102.824L158.053 102.599C156.126 99.6983 155.003 96.2113 155.003 92.4576C155.012 82.4107 163.072 74.2397 172.983 74.2397ZM154.919 108.362C154.984 108.441 155.069 108.511 155.134 108.589C155.59 109.105 156.065 109.605 156.565 110.081C156.691 110.203 156.822 110.318 156.951 110.436C157.447 110.891 157.959 111.324 158.491 111.737C158.62 111.834 158.746 111.93 158.874 112.028C159.102 112.198 159.321 112.382 159.556 112.543C163.326 114.787 170.879 116.828 173.547 116.828C176.067 116.828 180.827 115.967 186.711 112.331C186.858 112.225 186.998 112.11 187.146 112.004C187.348 111.85 187.555 111.698 187.752 111.543C188.217 111.173 188.662 110.785 189.096 110.382C189.281 110.212 189.468 110.051 189.647 109.879C190.123 109.409 190.577 108.918 191.014 108.408C191.104 108.305 191.207 108.215 191.295 108.105C193.749 105.127 194.125 104.108 194.618 102.824C196.097 99.6744 196.946 96.1694 196.946 92.4524C196.946 79.0669 186.197 68.1731 172.983 68.1731C159.775 68.1731 149.028 79.0669 149.028 92.4524C149.028 96.3029 149.941 99.9293 151.517 103.167" fill="#8BC34A"/>
<path fill-rule="evenodd" clip-rule="evenodd" d="M63.3003 74.7761L66.8913 65.7094C67.1683 65.0093 66.911 64.2098 66.2782 63.8082L58.0857 58.6004L55.7045 49.1376C55.5205 48.4071 54.8461 47.9141 54.1005 47.9624L44.4355 48.6032L36.9918 42.3588C36.417 41.8764 35.5828 41.8766 35.0091 42.3588L27.5644 48.6035L17.9004 47.9627C17.1537 47.9138 16.4793 48.4073 16.2964 49.1376L13.9142 58.6004L5.7216 63.8082C5.08991 64.2098 4.83264 65.0096 5.10852 65.7094L8.70064 74.7761L5.10852 83.8434C4.83264 84.5433 5.08991 85.3428 5.7216 85.7443L13.9142 90.9522L16.2964 100.415C16.4793 101.145 17.157 101.64 17.9004 101.59L27.5644 100.949L35.0091 107.194C35.2959 107.434 35.6474 107.555 35.9999 107.555C36.3525 107.555 36.7039 107.434 36.9918 107.194L44.4355 100.949L54.1005 101.59C54.8439 101.639 55.5205 101.145 55.7045 100.415L58.0857 90.9522L66.2782 85.7443C66.911 85.3428 67.1683 84.5433 66.8913 83.8434L63.3003 74.7761ZM55.9081 88.6413C55.572 88.8547 55.3311 89.1908 55.2326 89.5789L53.0167 98.386L44.0217 97.7897C43.6242 97.763 43.2334 97.8915 42.929 98.1477L35.9999 103.959L29.0719 98.1477C28.7916 97.9134 28.4413 97.7864 28.08 97.7864C28.046 97.7864 28.0121 97.787 27.9782 97.7895L18.9842 98.3857L16.7662 89.5785C16.6698 89.1905 16.4279 88.8547 16.0917 88.641L8.46634 83.7942L11.8099 75.3552C11.9555 74.9834 11.9555 74.5686 11.8099 74.1968L8.46634 65.7577L16.0917 60.9109C16.4279 60.6976 16.6698 60.3617 16.7662 59.9733L18.9842 51.1662L27.9771 51.7625C28.3756 51.7901 28.7664 51.6604 29.0719 51.4046L35.9999 45.5925L42.9279 51.4046C43.2334 51.6604 43.6242 51.7901 44.0217 51.7625L53.0167 51.1662L55.2315 59.9733C55.33 60.3617 55.572 60.6976 55.9081 60.9109L63.5324 65.7577L60.191 74.1968C60.0432 74.5688 60.0432 74.9834 60.191 75.3552L63.5324 83.7942L55.9081 88.6413ZM21.7059 59.3747C21.8352 59.4079 21.9655 59.4242 22.0936 59.4242C22.7844 59.4242 23.4139 58.9549 23.5934 58.2489L23.7205 57.744L30.0419 58.1631C30.4371 58.1886 30.8291 58.0607 31.1346 57.8049L35.9999 53.7234L40.8653 57.8046C41.1707 58.0604 41.5605 58.1883 41.959 58.1628L49.5614 57.6591C50.4165 57.6026 51.0635 56.8584 51.0077 55.9974C50.9507 55.1364 50.215 54.4833 49.3589 54.5408L42.374 55.0033L36.9918 50.4891C36.417 50.007 35.5839 50.0072 35.0091 50.4891L29.6281 55.0033L22.641 54.5408C21.8987 54.4918 21.2231 54.9832 21.0382 55.7117L20.5903 57.473C20.378 58.3092 20.8783 59.1603 21.7059 59.3747ZM20.9341 64.0376C20.806 64.0376 20.6757 64.0213 20.5476 63.9881C19.7178 63.7741 19.2185 62.9226 19.4309 62.0865L19.5755 61.5173C19.7878 60.6812 20.6319 60.1766 21.4618 60.3915C22.2906 60.6059 22.7909 61.457 22.5785 62.2931L22.4341 62.8623C22.2545 63.5684 21.6238 64.0376 20.9341 64.0376ZM51.4533 85.5645C50.6245 85.3492 49.7793 85.8532 49.5658 86.6893L49.4213 87.2582C49.2089 88.0943 49.7082 88.9457 50.5369 89.1604C50.6672 89.1942 50.7964 89.2099 50.9245 89.2099C51.6142 89.2099 52.2437 88.7412 52.4244 88.0358L52.5689 87.4667C52.7813 86.6309 52.2831 85.7791 51.4533 85.5645ZM48.4075 91.3027C48.6199 90.4669 49.464 89.9627 50.2928 90.177C51.1227 90.391 51.6219 91.2425 51.4106 92.0783L50.9617 93.8402C50.7767 94.5687 50.1022 95.0607 49.3578 95.0115L42.374 94.5481L36.9918 99.0619C36.7039 99.3026 36.3525 99.4235 35.9999 99.4235C35.6474 99.4235 35.2959 99.303 35.0091 99.0619L29.6281 94.5481L22.641 95.0115C21.7903 95.0687 21.0491 94.4162 20.9933 93.5549C20.9363 92.6939 21.5823 91.9497 22.4384 91.8931L30.0419 91.3888C30.4371 91.3627 30.8291 91.4909 31.1346 91.7467L35.9999 95.8279L40.8653 91.7467C41.1707 91.4909 41.5605 91.3627 41.959 91.3888L48.2783 91.8079L48.4075 91.3027ZM53.0342 67.0148H46.6219C45.0814 67.0148 44.3096 67.821 44.3096 69.4333V81.8997C44.3096 82.3397 44.5001 82.559 44.8767 82.559H46.7094C47.1167 82.559 47.3192 82.3397 47.3192 81.8997V76.381H52.1397C52.547 76.381 52.7506 76.2051 52.7506 75.853V74.3142C52.7506 73.9185 52.547 73.7205 52.1397 73.7205H47.3192V70.4887C47.3192 69.9311 47.5525 69.6526 48.0178 69.6526H53.0342C53.4414 69.6526 53.6451 69.4844 53.6451 69.1473V67.6077C53.6451 67.2123 53.4414 67.0148 53.0342 67.0148ZM42.2196 69.6529H37.2031C36.7378 69.6529 36.5047 69.9311 36.5047 70.4887V73.7205H41.3262C41.7324 73.7205 41.936 73.9185 41.936 74.3142V75.853C41.936 76.2051 41.7324 76.381 41.3262 76.381H36.5047V81.8997C36.5047 82.3397 36.3021 82.559 35.8948 82.559H34.0632C33.6843 82.559 33.496 82.3391 33.496 81.8997V69.4333C33.496 67.821 34.2657 67.0148 35.8072 67.0148H42.2196C42.6268 67.0148 42.8316 67.2125 42.8316 67.608V69.1473C42.8316 69.4844 42.6268 69.6529 42.2196 69.6529ZM24.8995 82.8228C26.0907 82.8228 27.087 82.6983 27.8862 82.4488C28.6866 82.1998 29.3763 81.7711 29.9587 81.1629C30.54 80.555 30.9626 79.7195 31.2232 78.6565C31.4849 77.5941 31.6152 76.2635 31.6152 74.6661C31.6152 73.3177 31.5254 72.1743 31.3425 71.2356C31.1619 70.298 30.9101 69.5357 30.5915 68.9496C30.2708 68.3632 29.8273 67.9044 29.2602 67.5748C28.6931 67.2454 28.0899 67.0215 27.4505 66.9047C26.81 66.7869 26.0184 66.7285 25.0725 66.7285C24.0401 66.7285 23.1457 66.8383 22.3902 67.0585C21.6337 67.2784 20.9352 67.667 20.297 68.2236C19.6564 68.7808 19.1725 69.5978 18.8452 70.675C18.5189 71.7525 18.3547 73.0898 18.3547 74.6876C18.3547 76.2853 18.4817 77.6152 18.7368 78.6783C18.9908 79.7407 19.4014 80.5765 19.9685 81.1848C20.5356 81.7936 21.2078 82.218 21.9862 82.4602C22.7646 82.7023 23.7346 82.8228 24.8995 82.8228ZM21.452 74.6876C21.452 73.2368 21.5965 72.1046 21.8888 71.2912C22.179 70.4773 22.5643 69.9351 23.0438 69.6642C23.5234 69.393 24.1715 69.2571 24.985 69.2571C25.8871 69.2571 26.5735 69.389 27.0465 69.6529C27.5195 69.9167 27.8753 70.4404 28.1151 71.2254C28.3559 72.0096 28.4752 73.1707 28.4752 74.7103C28.4752 75.8976 28.3986 76.8683 28.2454 77.6236C28.0932 78.3782 27.8545 78.9458 27.526 79.3274C27.1987 79.7084 26.8396 79.9649 26.4465 80.0968C26.0535 80.229 25.5521 80.2945 24.9422 80.2945C24.3314 80.2945 23.8267 80.225 23.4259 80.0857C23.0263 79.9468 22.6694 79.6786 22.3563 79.2835C22.0454 78.8874 21.8154 78.3157 21.6698 77.5685C21.5242 76.8207 21.452 75.8606 21.452 74.6876Z" fill="#E0E0E0"/>
<path fill-rule="evenodd" clip-rule="evenodd" d="M354.364 45.0082C352.823 45.0082 351.547 45.5393 350.46 46.6315C349.469 47.6281 348.942 48.776 348.857 50.1303L357.112 45.7189C356.297 45.2419 355.391 45.0082 354.364 45.0082ZM376.227 59.2559C379.402 57.2067 383 54.8841 383 50.9999C383 47.1155 379.402 44.7929 376.227 42.7438C375.135 42.0393 373.141 40.753 372.682 40.0784C372.717 39.2284 373.89 36.9314 374.465 35.8056C376.152 32.5039 378.064 28.7624 376.171 25.4909C374.257 22.1843 370.026 21.9737 366.291 21.7876C364.958 21.7212 362.518 21.5994 361.777 21.2227C361.401 20.481 361.278 18.0416 361.212 16.7077C361.026 12.9741 360.815 8.74256 357.509 6.82958C356.614 6.31177 355.595 6.04878 354.482 6.04878C352.06 6.04878 349.586 7.31262 347.194 8.53491C345.768 9.26313 343.832 10.2526 342.916 10.3138C342.239 9.84549 340.958 7.86149 340.256 6.77361C338.207 3.5987 335.885 0 332 0C328.116 0 325.793 3.5987 323.743 6.77361C323.041 7.86276 321.758 9.84952 321.083 10.3154C320.188 10.2634 318.239 9.26716 316.807 8.53491C314.414 7.31262 311.94 6.04878 309.517 6.04878C308.404 6.04878 307.387 6.31177 306.491 6.82958C303.186 8.74256 302.975 12.9741 302.787 16.7077C302.722 18.0419 302.6 20.4813 302.224 21.223C301.481 21.5994 299.042 21.7212 297.709 21.7876C293.974 21.9737 289.743 22.1846 287.829 25.4909C285.936 28.7624 287.849 32.5039 289.536 35.806C290.11 36.9314 291.283 39.2284 291.318 40.0784C290.858 40.7533 288.866 42.0396 287.774 42.7438C284.599 44.7929 281 47.1155 281 51.0001C281 54.8845 284.599 57.2067 287.774 59.2562C288.866 59.9604 290.858 61.2467 291.318 61.9216C291.283 62.7718 290.11 65.0686 289.535 66.1947C287.849 69.4957 285.936 73.2373 287.829 76.5088C289.743 79.8154 293.974 80.0263 297.707 80.2123C299.042 80.2788 301.481 80.4003 302.222 80.7773C302.599 81.5187 302.722 83.958 302.787 85.2919C302.973 89.0254 303.185 93.2571 306.491 95.1704C307.387 95.6885 308.405 95.9512 309.517 95.9512C311.94 95.9509 314.414 94.6874 316.807 93.465C318.231 92.7369 320.169 91.7473 321.084 91.6859C321.761 92.1542 323.041 94.1385 323.743 95.2264C325.793 98.4013 328.116 102 332 102C335.885 102 338.207 98.4013 340.256 95.2264C340.959 94.1372 342.242 92.1505 342.917 91.6846C343.811 91.7365 345.761 92.7328 347.194 93.465C349.586 94.687 352.061 95.9509 354.482 95.9509C355.596 95.9509 356.614 95.6879 357.51 95.1701C360.815 93.2569 361.026 89.0254 361.212 85.2919C361.278 83.958 361.401 81.5187 361.777 80.7773C362.518 80.4003 364.958 80.2791 366.291 80.2123C370.026 80.0263 374.257 79.8154 376.171 76.5088C378.064 73.2373 376.152 69.4954 374.465 66.1944C373.89 65.0683 372.717 62.7713 372.682 61.9216C373.141 61.2467 375.135 59.9601 376.227 59.2559ZM313.527 58.6129C312.328 59.6621 310.842 60.1944 309.112 60.1944H302.126C301.082 60.1944 300.238 59.3488 300.238 58.3054V57.747C300.238 56.7036 301.083 55.8581 302.126 55.8581H309.112C310.569 55.8581 310.769 55.3063 310.769 54.7104C310.769 54.3722 310.404 53.4762 307.027 52.4543C304.125 51.5782 302.312 50.6545 301.483 49.6314C300.656 48.6087 300.236 47.395 300.236 46.0241C300.236 44.5796 300.808 43.3397 301.934 42.341C303.042 41.3591 304.411 40.861 306.004 40.861H312.613C313.656 40.861 314.503 41.7065 314.503 42.7499V43.308C314.503 44.3517 313.656 45.197 312.613 45.197H306.004C304.648 45.197 304.648 45.8704 304.648 46.194C304.648 46.4845 305.008 47.561 309.631 49.2022C313.438 50.5543 315.369 52.3756 315.369 54.6158C315.369 56.1997 314.748 57.5446 313.527 58.6129ZM335.545 58.3054C335.545 59.3488 334.699 60.1944 333.657 60.1944H333.003C331.961 60.1944 331.116 59.3488 331.116 58.3054V50.5279C331.116 48.9986 330.586 47.7244 329.499 46.6318C328.413 45.5393 327.136 45.0084 325.596 45.0084C324.055 45.0084 322.779 45.5393 321.693 46.6315C320.604 47.7247 320.076 48.9989 320.076 50.5279C320.076 52.0684 320.604 53.3458 321.692 54.4322C322.778 55.5182 324.055 56.0465 325.596 56.0465C326.157 56.0465 326.698 55.9718 327.206 55.8242C328.074 55.5711 329.002 55.9705 329.414 56.7769L329.721 57.3737C329.975 57.8712 329.997 58.4561 329.779 58.9709C329.561 59.4856 329.128 59.8774 328.593 60.0413C327.647 60.33 326.64 60.477 325.596 60.477C322.865 60.477 320.499 59.4989 318.565 57.5705C316.627 55.6412 315.646 53.2717 315.646 50.5279C315.646 47.7966 316.627 45.4304 318.564 43.495C320.498 41.5598 322.865 40.5784 325.596 40.5784C328.327 40.5784 330.693 41.5595 332.629 43.495C334.564 45.4306 335.545 47.7966 335.545 50.5279V58.3054ZM342.08 58.3054C342.08 59.3488 341.234 60.1944 340.192 60.1944H339.558C338.515 60.1944 337.669 59.3488 337.669 58.3054V32.9902C337.669 31.9468 338.516 31.1011 339.558 31.1011H340.192C341.235 31.1011 342.08 31.9471 342.08 32.9902V58.3054ZM363.631 54.236C363.148 55.4629 362.414 56.5524 361.391 57.5665C359.462 59.4958 357.095 60.477 354.364 60.477C351.633 60.477 349.268 59.4989 347.332 57.5705C345.397 55.6418 344.415 53.2723 344.415 50.5279C344.415 47.7962 345.396 45.4301 347.331 43.495C349.267 41.5598 351.633 40.5784 354.364 40.5784C358.001 40.5784 360.762 41.955 362.57 44.6708C362.595 44.7087 362.617 44.741 362.635 44.7664C362.955 45.2077 363.069 45.7659 362.948 46.2978C362.826 46.8305 362.478 47.2825 361.996 47.5405L350.022 53.9488C350.157 54.1138 350.302 54.2751 350.459 54.4318C351.546 55.5182 352.823 56.0465 354.364 56.0465C355.906 56.0465 357.184 55.5152 358.277 54.422C358.796 53.9045 359.191 53.328 359.453 52.7086C359.788 51.9192 360.613 51.4531 361.462 51.5751L362.142 51.673C362.713 51.755 363.216 52.0942 363.507 52.5939C363.797 53.0936 363.843 53.6988 363.631 54.236Z" fill="#E0E0E0"/>
<path fill-rule="evenodd" clip-rule="evenodd" d="M317.135 210.777L296.49 190.563C294.761 188.868 291.963 187.908 289.533 188.172L281.793 189.015L282.935 181.341C283.1 180.226 282.312 179.188 281.171 179.026C280.032 178.864 278.974 179.632 278.806 180.751L277.507 189.48L273.766 189.887C270.875 190.203 268.107 192.911 267.781 195.752L266.031 211.184C265.76 213.565 266.74 216.303 268.47 217.999L289.115 238.216C291.555 240.601 295.523 240.601 297.962 238.216L317.133 219.444C319.573 217.053 319.573 213.164 317.135 210.777ZM277.755 201.968C278.432 202.063 279.082 201.831 279.533 201.39C279.839 201.09 280.054 200.696 280.12 200.242L280.638 196.765C280.67 196.79 280.703 196.814 280.736 196.838L280.736 196.838C280.829 196.907 280.922 196.976 281.007 197.059C282.636 198.656 282.633 201.239 281.007 202.835C279.378 204.431 276.738 204.433 275.107 202.835C273.481 201.241 273.481 198.656 275.107 197.059C275.522 196.652 276.005 196.352 276.516 196.154L275.994 199.652C275.828 200.769 276.618 201.804 277.755 201.968ZM295.352 222.721L293.241 224.782L288.907 204.766L291.031 202.683L295.352 222.721ZM294.64 212.893C294.607 211.74 295.069 210.693 296.026 209.758C296.945 208.856 297.934 208.418 298.989 208.447C300.042 208.476 301.064 208.975 302.057 209.944C303.076 210.943 303.602 212.016 303.637 213.166C303.673 214.317 303.213 215.358 302.264 216.289C301.385 217.151 300.394 217.573 299.294 217.552C298.201 217.532 297.176 217.061 296.231 216.136C295.201 215.127 294.67 214.046 294.64 212.893ZM289.648 214.58C289.68 215.727 289.217 216.766 288.267 217.693C287.385 218.557 286.397 218.979 285.299 218.96C284.202 218.94 283.179 218.469 282.234 217.544C281.205 216.535 280.673 215.452 280.64 214.297C280.608 213.144 281.071 212.099 282.025 211.162C282.943 210.267 283.933 209.834 284.995 209.864C286.059 209.895 287.085 210.395 288.076 211.366C289.095 212.363 289.62 213.436 289.648 214.58ZM315.66 217.997L296.49 236.768C294.863 238.359 292.218 238.359 290.592 236.768L269.947 216.553C268.684 215.314 267.905 213.15 268.107 211.41L269.853 195.978C269.967 195.017 270.462 194.061 271.256 193.285C272.048 192.509 273.026 192.023 274 191.917L277.197 191.569L276.887 193.657L274.233 193.944C273.092 194.069 272.056 195.084 271.931 196.201L270.181 211.635C270.052 212.751 270.613 214.317 271.424 215.109L292.068 235.324C292.879 236.118 294.205 236.118 295.016 235.324L314.186 216.553C314.998 215.757 314.998 214.459 314.186 213.665L293.544 193.451C292.731 192.656 291.135 192.107 289.994 192.233L281.175 193.191L281.484 191.104L289.768 190.203C291.545 190.01 293.752 190.767 295.018 192.007L315.664 212.221C317.286 213.815 317.286 216.405 315.66 217.997ZM300.846 214.698C301.666 213.898 301.501 212.933 300.346 211.805C299.811 211.28 299.286 210.983 298.774 210.907C298.259 210.835 297.824 210.975 297.471 211.322C296.634 212.139 296.802 213.121 297.969 214.267C299.075 215.352 300.035 215.493 300.846 214.698ZM283.989 215.657C282.819 214.51 282.657 213.527 283.495 212.702C284.274 211.94 285.223 212.112 286.348 213.212C287.498 214.339 287.666 215.304 286.848 216.104C286.046 216.89 285.094 216.738 283.989 215.657Z" fill="#E0E0E0"/>
</g>
<defs>
<filter id="filter0_d" x="0.998535" y="0" width="386.002" height="248.004" filterUnits="userSpaceOnUse" color-interpolation-filters="sRGB">
<feFlood flood-opacity="0" result="BackgroundImageFix"/>
<feColorMatrix in="SourceAlpha" type="matrix" values="0 0 0 0 0 0 0 0 0 0 0 0 0 0 0 0 0 0 127 0"/>
<feOffset dy="4"/>
<feGaussianBlur stdDeviation="2"/>
<feColorMatrix type="matrix" values="0 0 0 0 0 0 0 0 0 0 0 0 0 0 0 0 0 0 0.25 0"/>
<feBlend mode="normal" in2="BackgroundImageFix" result="effect1_dropShadow"/>
<feBlend mode="normal" in="SourceGraphic" in2="effect1_dropShadow" result="shape"/>
</filter>
</defs>
</svg>
