<svg width="389" height="280" viewBox="0 0 389 280" fill="none" xmlns="http://www.w3.org/2000/svg">
<path fill-rule="evenodd" clip-rule="evenodd" d="M236.751 76.8009C237.327 77.3726 237.593 78.134 237.553 78.8824C237.554 78.8967 237.555 78.9109 237.556 78.9252C237.558 78.955 237.56 78.9848 237.56 79.015V94.6378C237.56 96.1528 236.323 97.381 234.796 97.381C233.269 97.381 232.032 96.1528 232.032 94.6378V85.3636L202.754 114.42C201.674 115.492 199.923 115.492 198.845 114.42L188.539 104.194L140.806 151.567C140.266 152.103 139.559 152.37 138.851 152.37C138.144 152.37 137.436 152.103 136.897 151.568C135.817 150.496 135.817 148.759 136.897 147.688L186.586 98.3755C187.103 97.861 187.806 97.572 188.539 97.572C189.273 97.572 189.976 97.861 190.494 98.3755L200.799 108.602L228.124 81.4839H217.797C216.271 81.4839 215.034 80.2557 215.034 78.7407C215.034 77.2256 216.271 75.9978 217.797 75.9978H234.52C234.548 75.9978 234.576 75.9996 234.604 76.0014C234.62 76.0024 234.636 76.0035 234.653 76.0042C235.407 75.9655 236.175 76.2293 236.751 76.8009ZM132.298 159.199C132.298 157.684 131.061 156.455 129.535 156.455C128.008 156.455 126.771 157.684 126.771 159.199C126.771 160.714 128.008 161.942 129.535 161.942C131.061 161.942 132.298 160.714 132.298 159.199Z" fill="#8BC34A"/>
<path fill-rule="evenodd" clip-rule="evenodd" d="M365.498 23.0132C369.217 18.5345 371.717 8.56941 372.802 3.64511L373.615 0L360.034 5.85511C358.813 6.26249 357.613 6.04915 356.585 5.44792C354.357 4.0328 351.723 3.83876 349.301 4.84708L342.015 8.0848C340.388 8.89899 339.186 10.3144 338.78 12.137C338.586 13.9592 338.974 15.7818 340.195 17.1969C342.461 19.6978 346.085 22.1991 348.739 23.8859C335.874 30.6907 327.001 50.4082 327.001 64.0766C327.001 81.0601 340.988 94.9997 358 94.9997C375.224 94.9997 388.999 81.0601 388.999 64.0766C388.999 49.7683 379.273 28.8684 365.498 23.0132ZM343.217 14.7541C342.809 14.347 342.615 13.7462 342.809 13.145C342.809 12.7378 343.217 12.137 343.817 11.9236L351.102 8.68564C352.111 8.0848 353.524 8.27884 354.551 8.87968C356.585 10.2951 359.22 10.4888 361.643 9.48081L368.133 6.64999C366.099 14.5408 363.269 21.2104 361.643 21.4042V21.7726C360.441 21.5204 359.24 21.4042 358 21.4042C356.334 21.4042 354.687 21.6369 353.098 22.0825C350.928 20.8614 345.891 17.7591 343.217 14.7541ZM358 91.1612C343.004 91.1612 330.857 79.0245 330.857 64.0766C330.857 49.1284 343.217 25.2623 358 25.2623C372.783 25.2623 385.143 49.1093 385.143 64.0766C385.143 79.0245 372.995 91.1612 358 91.1612ZM366.505 58.4155C365.286 57.1938 363.057 56.1858 360.015 55.5846H359.821V48.101C361.643 48.2947 363.677 49.1093 365.286 50.3303L367.706 46.6856C365.072 45.0765 362.437 44.0487 359.608 43.8551V41.8387H357.186V43.8551C354.764 44.0487 352.73 44.863 351.102 46.2784C349.475 47.6939 348.681 49.5165 348.681 51.7265C348.681 53.9367 349.282 55.5653 350.715 56.7867C352.129 58.0081 354.357 59.0164 357.206 59.6172V67.2948C354.977 66.8875 352.749 65.6858 350.521 63.8632L347.693 67.2948C350.521 69.7183 353.562 71.1337 357.226 71.5409V74.3714H359.86V71.5409C362.495 71.3471 364.53 70.5326 366.137 69.1174C367.746 67.702 368.559 65.8794 368.559 63.6691C368.541 61.2457 367.92 59.6366 366.505 58.4155ZM357.4 54.9838C355.772 54.5767 354.977 54.1692 354.357 53.5684C353.756 53.1613 353.544 52.3467 353.544 51.5521C353.544 50.5438 353.95 49.943 354.551 49.3224C355.152 48.7213 355.965 48.3141 357.38 48.3141V54.9838H357.4ZM362.67 66.3063C361.857 66.9072 361.042 67.3142 359.627 67.5274V60.4511C361.256 60.8583 362.262 61.2654 362.863 61.8662C363.464 62.4675 363.677 63.2817 363.677 64.0956C363.677 64.8908 363.464 65.6858 362.67 66.3063Z" fill="#E0E0E0"/>
<path fill-rule="evenodd" clip-rule="evenodd" d="M255.236 206.514H249.174V119.156C249.174 115.09 245.84 111.782 241.743 111.782H228.193C224.096 111.782 220.763 115.09 220.763 119.156V206.514H205.369V158.736C205.369 154.67 202.036 151.362 197.938 151.362H184.389C180.291 151.362 176.957 154.67 176.957 158.736V206.514H161.564V181.77C161.564 177.704 158.231 174.396 154.135 174.396H140.584C136.487 174.396 133.154 177.704 133.154 181.77V206.514H126.764C125.237 206.514 124.001 207.742 124.001 209.257C124.001 210.772 125.237 212 126.764 212H255.236C256.762 212 258 210.772 258 209.257C258 207.742 256.762 206.514 255.236 206.514ZM156.035 206.514H138.681V181.77C138.681 180.729 139.534 179.882 140.583 179.882H154.134C155.183 179.882 156.035 180.729 156.035 181.77V206.514ZM199.841 206.514H182.486V158.736C182.486 157.695 183.339 156.848 184.389 156.848H197.938C198.987 156.848 199.841 157.695 199.841 158.736V206.514ZM243.646 206.514H226.291V119.156C226.291 118.115 227.144 117.268 228.193 117.268H241.743C242.792 117.268 243.646 118.115 243.646 119.156V206.514Z" fill="#757575"/>
<mask id="path-4-outside-1" maskUnits="userSpaceOnUse" x="0.995361" y="94.0044" width="50" height="47" fill="black">
<rect fill="white" x="0.995361" y="94.0044" width="50" height="47"/>
<path fill-rule="evenodd" clip-rule="evenodd" d="M49.0036 100.839H14.3361L13.3432 95.0044H4.55944C3.14164 95.0044 1.99536 96.1646 1.99536 97.5972V100.189H9.02301L13.5457 126.781C13.6453 127.367 14.2026 127.841 14.7916 127.841H45.1575C46.5753 127.841 47.7226 126.683 47.7226 125.247V122.658H18.0465L17.4225 118.983H40.8844C43.7167 118.983 46.3902 116.692 46.8577 113.871L49.0036 100.839ZM22.7214 131.03C25.1705 131.03 27.1543 133.036 27.1543 135.511C27.1543 137.987 25.1705 139.995 22.7214 139.995C20.2723 139.995 18.2874 137.987 18.2874 135.511C18.2874 133.036 20.2723 131.03 22.7214 131.03ZM38.1068 139.993C35.66 139.993 33.6761 137.985 33.6761 135.511C33.6761 133.037 35.66 131.028 38.1068 131.028C40.556 131.028 42.5441 133.037 42.5441 135.511C42.5441 137.985 40.556 139.993 38.1068 139.993Z"/>
</mask>
<path fill-rule="evenodd" clip-rule="evenodd" d="M49.0036 100.839H14.3361L13.3432 95.0044H4.55944C3.14164 95.0044 1.99536 96.1646 1.99536 97.5972V100.189H9.02301L13.5457 126.781C13.6453 127.367 14.2026 127.841 14.7916 127.841H45.1575C46.5753 127.841 47.7226 126.683 47.7226 125.247V122.658H18.0465L17.4225 118.983H40.8844C43.7167 118.983 46.3902 116.692 46.8577 113.871L49.0036 100.839ZM22.7214 131.03C25.1705 131.03 27.1543 133.036 27.1543 135.511C27.1543 137.987 25.1705 139.995 22.7214 139.995C20.2723 139.995 18.2874 137.987 18.2874 135.511C18.2874 133.036 20.2723 131.03 22.7214 131.03ZM38.1068 139.993C35.66 139.993 33.6761 137.985 33.6761 135.511C33.6761 133.037 35.66 131.028 38.1068 131.028C40.556 131.028 42.5441 133.037 42.5441 135.511C42.5441 137.985 40.556 139.993 38.1068 139.993Z" fill="#E0E0E0"/>
<path d="M14.3361 100.839L13.3503 101.006L13.492 101.839H14.3361V100.839ZM49.0036 100.839L49.9903 101.001L50.1817 99.8386H49.0036V100.839ZM13.3432 95.0044L14.329 94.8366L14.1873 94.0044H13.3432V95.0044ZM1.99536 100.189H0.995361V101.189H1.99536V100.189ZM9.02301 100.189L10.0089 100.021L9.8673 99.1885H9.02301V100.189ZM13.5457 126.781L12.5598 126.949L12.5599 126.949L13.5457 126.781ZM47.7226 122.658H48.7226V121.658H47.7226V122.658ZM18.0465 122.658L17.0606 122.825L17.202 123.658H18.0465V122.658ZM17.4225 118.983V117.983H16.2383L16.4366 119.15L17.4225 118.983ZM46.8577 113.871L47.8443 114.034L47.8444 114.033L46.8577 113.871ZM14.3361 101.839H49.0036V99.8386H14.3361V101.839ZM12.3573 95.1722L13.3503 101.006L15.322 100.671L14.329 94.8366L12.3573 95.1722ZM4.55944 96.0044H13.3432V94.0044H4.55944V96.0044ZM2.99536 97.5972C2.99536 96.7061 3.70468 96.0044 4.55944 96.0044V94.0044C2.5786 94.0044 0.995361 95.6231 0.995361 97.5972H2.99536ZM2.99536 100.189V97.5972H0.995361V100.189H2.99536ZM9.02301 99.1885H1.99536V101.189H9.02301V99.1885ZM14.5315 126.614L10.0089 100.021L8.03716 100.356L12.5598 126.949L14.5315 126.614ZM14.7916 126.841C14.6967 126.841 14.5505 126.725 14.5315 126.614L12.5599 126.949C12.7402 128.009 13.7085 128.841 14.7916 128.841V126.841ZM45.1575 126.841H14.7916V128.841H45.1575V126.841ZM46.7226 125.247C46.7226 126.141 46.0129 126.841 45.1575 126.841V128.841C47.1376 128.841 48.7226 127.225 48.7226 125.247H46.7226ZM46.7226 122.658V125.247H48.7226V122.658H46.7226ZM18.0465 123.658H47.7226V121.658H18.0465V123.658ZM16.4366 119.15L17.0606 122.825L19.0324 122.49L18.4083 118.816L16.4366 119.15ZM40.8844 117.983H17.4225V119.983H40.8844V117.983ZM45.8712 113.707C45.4823 116.054 43.2192 117.983 40.8844 117.983V119.983C44.2142 119.983 47.2982 117.33 47.8443 114.034L45.8712 113.707ZM48.0169 100.676L45.871 113.708L47.8444 114.033L49.9903 101.001L48.0169 100.676ZM28.1543 135.511C28.1543 132.494 25.7331 130.03 22.7214 130.03V132.03C24.6079 132.03 26.1543 133.578 26.1543 135.511H28.1543ZM22.7214 140.995C25.7336 140.995 28.1543 138.529 28.1543 135.511H26.1543C26.1543 137.446 24.6074 138.995 22.7214 138.995V140.995ZM17.2874 135.511C17.2874 138.529 19.7095 140.995 22.7214 140.995V138.995C20.8351 138.995 19.2874 137.446 19.2874 135.511H17.2874ZM22.7214 130.03C19.71 130.03 17.2874 132.494 17.2874 135.511H19.2874C19.2874 133.578 20.8345 132.03 22.7214 132.03V130.03ZM32.6761 135.511C32.6761 138.527 35.0968 140.993 38.1068 140.993V138.993C36.2231 138.993 34.6761 137.444 34.6761 135.511H32.6761ZM38.1068 130.028C35.0963 130.028 32.6761 132.496 32.6761 135.511H34.6761C34.6761 133.578 36.2236 132.028 38.1068 132.028V130.028ZM43.5441 135.511C43.5441 132.495 41.118 130.028 38.1068 130.028V132.028C39.9939 132.028 41.5441 133.58 41.5441 135.511H43.5441ZM38.1068 140.993C41.1175 140.993 43.5441 138.528 43.5441 135.511H41.5441C41.5441 137.442 39.9944 138.993 38.1068 138.993V140.993Z" fill="#E0E0E0" mask="url(#path-4-outside-1)"/>
<path fill-rule="evenodd" clip-rule="evenodd" d="M373.634 225.36C361.154 212.878 340.848 212.878 328.37 225.36C323.99 229.74 320.996 235.242 319.707 241.272C318.454 247.143 318.864 253.226 320.895 258.863C321.139 259.54 321.886 259.891 322.564 259.647C323.24 259.403 323.591 258.657 323.347 257.98C321.481 252.801 321.103 247.211 322.255 241.816C323.438 236.279 326.189 231.226 330.211 227.203C341.675 215.736 360.328 215.736 371.792 227.203C377.252 232.664 380.307 239.922 380.396 247.642C380.486 255.348 377.614 262.665 372.312 268.244C372.25 268.31 372.187 268.377 372.126 268.443C372.017 268.561 371.906 268.678 371.792 268.793C360.328 280.259 341.675 280.259 330.211 268.793C330.151 268.732 330.091 268.67 330.033 268.608C330.029 268.487 330.026 268.369 330.026 268.252C330.026 267.99 330.031 267.728 330.041 267.468C330.045 267.381 330.05 267.295 330.056 267.208C330.064 267.035 330.072 266.862 330.084 266.689C330.093 266.587 330.103 266.485 330.112 266.383C330.127 266.228 330.138 266.073 330.156 265.918C330.168 265.809 330.183 265.701 330.197 265.592C330.214 265.446 330.233 265.299 330.255 265.153C330.271 265.042 330.29 264.932 330.308 264.821C330.331 264.679 330.354 264.536 330.381 264.395C330.402 264.283 330.426 264.173 330.447 264.061C330.476 263.923 330.502 263.783 330.534 263.646C330.559 263.534 330.587 263.422 330.614 263.311C330.646 263.176 330.678 263.04 330.713 262.905C330.743 262.793 330.775 262.683 330.805 262.572C330.843 262.439 330.879 262.306 330.919 262.174C330.952 262.063 330.988 261.953 331.023 261.843C331.065 261.713 331.107 261.582 331.151 261.452C331.189 261.343 331.227 261.235 331.266 261.126C331.312 260.998 331.359 260.869 331.408 260.741C331.449 260.634 331.491 260.527 331.535 260.42C331.585 260.293 331.636 260.167 331.69 260.042C331.735 259.936 331.781 259.83 331.827 259.725C331.883 259.601 331.939 259.477 331.996 259.354C332.045 259.25 332.095 259.146 332.146 259.043C332.205 258.92 332.265 258.799 332.326 258.678C332.379 258.576 332.432 258.475 332.486 258.373C332.551 258.253 332.615 258.134 332.681 258.015C332.737 257.916 332.793 257.816 332.851 257.718C332.918 257.6 332.989 257.483 333.059 257.367C333.118 257.269 333.178 257.172 333.238 257.075C333.311 256.96 333.384 256.845 333.458 256.732C333.522 256.636 333.585 256.541 333.649 256.447C333.726 256.334 333.803 256.222 333.882 256.111C333.949 256.018 334.013 255.926 334.081 255.834C334.162 255.724 334.245 255.615 334.329 255.506C334.398 255.417 334.467 255.327 334.535 255.238C334.622 255.13 334.71 255.023 334.797 254.917C334.867 254.83 334.939 254.743 335.012 254.657C335.103 254.552 335.192 254.448 335.285 254.344C335.36 254.26 335.434 254.176 335.51 254.094C335.604 253.991 335.699 253.89 335.797 253.789C335.873 253.708 335.95 253.627 336.028 253.548C336.126 253.447 336.227 253.349 336.328 253.25C336.408 253.173 336.485 253.095 336.566 253.019C336.67 252.921 336.776 252.826 336.882 252.729C336.963 252.656 337.043 252.582 337.125 252.51C337.233 252.414 337.345 252.32 337.457 252.226C337.537 252.158 337.619 252.087 337.701 252.02C337.817 251.926 337.935 251.834 338.052 251.742C338.134 251.678 338.216 251.612 338.3 251.549C338.422 251.456 338.549 251.365 338.675 251.274C338.755 251.216 338.834 251.157 338.914 251.1C339.054 251.002 339.195 250.907 339.338 250.813C339.409 250.766 339.478 250.718 339.548 250.671C339.734 250.551 339.922 250.434 340.111 250.319C340.141 250.301 340.169 250.282 340.199 250.264C340.419 250.133 340.641 250.005 340.868 249.881C340.945 249.839 341.023 249.799 341.102 249.757C341.251 249.677 341.401 249.597 341.553 249.52C341.65 249.471 341.75 249.425 341.849 249.378C341.973 249.318 342.096 249.257 342.221 249.199C344.583 251.455 347.732 252.732 351.002 252.732C354.271 252.732 357.42 251.454 359.782 249.199C364.391 251.332 368.164 255.16 370.211 259.816C370.5 260.475 371.27 260.774 371.929 260.484C372.587 260.194 372.886 259.425 372.596 258.767C370.356 253.674 366.456 249.605 361.52 247.148C362.952 245.047 363.727 242.565 363.727 240.004C363.727 232.986 358.018 227.277 351.002 227.277C350.282 227.277 349.699 227.86 349.699 228.579C349.699 229.299 350.282 229.882 351.002 229.882C356.582 229.882 361.121 234.423 361.121 240.004C361.121 242.5 360.194 244.903 358.511 246.771C358.51 246.771 358.51 246.771 358.51 246.771C356.587 248.903 353.85 250.126 351.002 250.126C348.152 250.126 345.416 248.903 343.494 246.771C343.493 246.771 343.492 246.771 343.492 246.77C341.81 244.902 340.883 242.5 340.883 240.005C340.883 237.28 341.947 234.725 343.885 232.809C344.397 232.303 344.401 231.478 343.894 230.967C343.388 230.455 342.564 230.451 342.051 230.956C339.618 233.365 338.277 236.578 338.277 240.004C338.277 242.562 339.049 245.042 340.48 247.142C340.467 247.148 340.454 247.155 340.442 247.162C340.34 247.213 340.242 247.267 340.141 247.318C339.987 247.398 339.831 247.478 339.679 247.561C339.572 247.62 339.467 247.681 339.359 247.741C339.217 247.822 339.075 247.902 338.934 247.985C338.825 248.05 338.718 248.117 338.61 248.183C338.476 248.266 338.342 248.349 338.209 248.434C338.1 248.504 337.994 248.576 337.887 248.647C337.759 248.732 337.631 248.819 337.504 248.907C337.397 248.981 337.291 249.057 337.186 249.133C337.062 249.222 336.94 249.312 336.817 249.403C336.712 249.482 336.61 249.561 336.507 249.641C336.387 249.734 336.269 249.827 336.151 249.922C336.05 250.004 335.949 250.088 335.849 250.171C335.733 250.267 335.619 250.365 335.506 250.463C335.407 250.548 335.31 250.635 335.213 250.722C335.1 250.822 334.991 250.924 334.881 251.026C334.787 251.115 334.692 251.204 334.599 251.294C334.491 251.398 334.384 251.505 334.277 251.611C334.186 251.702 334.096 251.793 334.007 251.885C333.902 251.994 333.799 252.106 333.696 252.217C333.609 252.31 333.522 252.402 333.437 252.497C333.335 252.611 333.234 252.728 333.133 252.845C333.053 252.939 332.971 253.032 332.891 253.127C332.789 253.249 332.691 253.374 332.59 253.498C332.517 253.59 332.44 253.681 332.368 253.775C332.264 253.91 332.163 254.047 332.061 254.184C331.997 254.27 331.931 254.354 331.869 254.441C331.739 254.619 331.616 254.8 331.492 254.981C331.46 255.029 331.426 255.076 331.393 255.124C331.24 255.353 331.091 255.585 330.946 255.82C330.896 255.901 330.848 255.983 330.799 256.065C330.706 256.221 330.611 256.377 330.521 256.535C330.464 256.634 330.41 256.734 330.357 256.834C330.277 256.977 330.197 257.12 330.121 257.265C330.064 257.373 330.011 257.482 329.956 257.59C329.885 257.73 329.815 257.87 329.746 258.011C329.692 258.123 329.641 258.237 329.588 258.35C329.523 258.49 329.46 258.63 329.398 258.77C329.348 258.887 329.298 259.004 329.25 259.121C329.192 259.261 329.133 259.402 329.076 259.543C329.029 259.662 328.984 259.782 328.939 259.902C328.885 260.044 328.833 260.186 328.781 260.329C328.74 260.451 328.697 260.573 328.656 260.695C328.607 260.838 328.56 260.983 328.515 261.127C328.476 261.25 328.438 261.374 328.402 261.498C328.359 261.644 328.316 261.791 328.275 261.938C328.241 262.062 328.209 262.186 328.175 262.311C328.137 262.46 328.101 262.61 328.065 262.759C328.034 262.884 328.006 263.009 327.978 263.135C327.945 263.287 327.913 263.439 327.882 263.592C327.858 263.717 327.833 263.843 327.809 263.968C327.782 264.124 327.756 264.281 327.731 264.438C327.71 264.562 327.69 264.686 327.672 264.809C327.647 264.972 327.627 265.134 327.608 265.297C327.592 265.418 327.576 265.539 327.563 265.66C327.544 265.83 327.53 266.002 327.514 266.174C327.505 266.288 327.493 266.403 327.484 266.517C327.471 266.709 327.461 266.902 327.453 267.095C327.448 267.19 327.441 267.286 327.437 267.382C327.426 267.671 327.42 267.961 327.42 268.253C327.42 268.567 327.43 268.865 327.444 269.193C327.448 269.269 327.459 269.343 327.473 269.415C327.474 269.421 327.475 269.427 327.476 269.432C327.493 269.503 327.514 269.571 327.541 269.637C327.545 269.644 327.546 269.65 327.55 269.657C327.578 269.722 327.611 269.784 327.649 269.844C327.653 269.851 327.658 269.858 327.663 269.865C327.702 269.923 327.744 269.978 327.793 270.029C327.796 270.032 327.798 270.037 327.801 270.041L327.974 270.224C328.103 270.363 328.233 270.501 328.368 270.636C334.608 276.878 342.805 279.999 351.002 279.999C359.197 279.999 367.393 276.878 373.633 270.636C373.768 270.501 373.899 270.363 374.028 270.224L374.2 270.041C379.973 263.966 383.098 256.001 383.001 247.613C382.903 239.208 379.577 231.305 373.634 225.36Z" fill="#E0E0E0"/>
</svg>
