<svg width="19" height="18" viewBox="0 0 19 18" fill="none" xmlns="http://www.w3.org/2000/svg">
<path fill-rule="evenodd" clip-rule="evenodd" d="M9.00042 0.531131C13.9709 0.531131 18.0009 4.44192 18.0009 9.26568C18.0009 14.0894 13.9709 18.0002 9.00042 18.0002C4.02884 18.0002 -9.0003e-05 14.0894 -9.0003e-05 9.26568C-9.0003e-05 4.44192 4.02884 0.531131 9.00042 0.531131Z" fill="#8BC34A"/>
<path fill-rule="evenodd" clip-rule="evenodd" d="M13.9928 4.41737C13.7202 4.15323 13.3951 4.021 13.0163 4.021H4.98467C4.60477 4.021 4.27851 4.15323 4.00809 4.41737C3.73548 4.6809 3.59863 4.99762 3.59863 5.366V13.1615C3.59863 13.5298 3.73548 13.8466 4.00809 14.1101C4.27851 14.3742 4.60477 14.5065 4.98467 14.5065H13.0163C13.3951 14.5065 13.7202 14.3742 13.9928 14.1101C14.2654 13.8466 14.4001 13.5298 14.4001 13.1615V5.366C14.4001 4.99762 14.2654 4.6812 13.9928 4.41737ZM7.47757 7.79926C7.90127 7.40135 8.41145 7.2021 9.00703 7.2021C9.60809 7.2021 10.1194 7.40135 10.5442 7.79926C10.9679 8.19747 11.1802 8.67901 11.1802 9.24297C11.1802 9.80723 10.9679 10.2885 10.5442 10.6867C10.1194 11.0849 9.60809 11.2842 9.00703 11.2842C8.41145 11.2842 7.90127 11.0849 7.47757 10.6867C7.05387 10.2885 6.84039 9.80723 6.84039 9.24297C6.84039 8.67901 7.05387 8.19747 7.47757 7.79926ZM13.1772 12.8816C13.1772 13 13.1356 13.0987 13.0502 13.1784C12.9659 13.2583 12.8652 13.298 12.748 13.298H5.231C5.10948 13.298 5.00657 13.2583 4.92446 13.1784C4.84344 13.099 4.80183 13 4.80183 12.8816V8.45823H5.79375C5.69958 8.74482 5.65252 9.04309 5.65252 9.35244C5.65252 10.2261 5.98096 10.9714 6.63785 11.588C7.29364 12.2048 8.08411 12.5132 9.00703 12.5132C9.61684 12.5132 10.1796 12.3718 10.6952 12.0898C11.2109 11.8075 11.6182 11.4244 11.9182 10.9395C12.2192 10.4548 12.3681 9.92593 12.3681 9.35244C12.3681 9.04309 12.3221 8.74482 12.228 8.45823H13.1772V12.8816ZM13.1772 6.78604C13.1772 6.91766 13.1312 7.02927 13.0371 7.1203C12.9429 7.21101 12.828 7.25683 12.6922 7.25683H11.4682C11.3335 7.25683 11.2175 7.21101 11.1233 7.1203C11.0303 7.02927 10.9832 6.91766 10.9832 6.78604V5.65936C10.9832 5.53206 11.0303 5.42167 11.1233 5.3285C11.2175 5.23501 11.3335 5.18858 11.4682 5.18858H12.6922C12.828 5.18858 12.9429 5.23501 13.0371 5.3285C13.1312 5.42167 13.1772 5.53206 13.1772 5.65936V6.78604Z" fill="white"/>
</svg>
