<svg width="166" height="54" viewBox="0 0 166 54" fill="none" xmlns="http://www.w3.org/2000/svg">
<path d="M16.415 14.4725C16.2517 14.7408 16.0825 14.9392 15.9075 15.0675C15.7442 15.1842 15.5283 15.2425 15.26 15.2425C15.0033 15.2425 14.7233 15.155 14.42 14.98C14.1283 14.7933 13.7842 14.595 13.3875 14.385C12.9908 14.175 12.5358 13.9825 12.0225 13.8075C11.5092 13.6208 10.9083 13.5275 10.22 13.5275C9.00667 13.5275 8.09667 13.8017 7.49 14.35C6.88333 14.8867 6.58 15.5925 6.58 16.4675C6.58 17.0275 6.74333 17.4942 7.07 17.8675C7.40833 18.2292 7.84583 18.5442 8.3825 18.8125C8.93083 19.0808 9.54917 19.32 10.2375 19.53C10.9258 19.74 11.6317 19.9733 12.355 20.23C13.0783 20.475 13.7842 20.7667 14.4725 21.105C15.1608 21.4433 15.7733 21.8692 16.31 22.3825C16.8583 22.8958 17.2958 23.5258 17.6225 24.2725C17.9608 25.0075 18.13 25.9058 18.13 26.9675C18.13 28.1225 17.9258 29.2075 17.5175 30.2225C17.1208 31.2258 16.5433 32.1067 15.785 32.865C15.0267 33.6117 14.0875 34.2008 12.9675 34.6325C11.8592 35.0642 10.5992 35.28 9.1875 35.28C8.3825 35.28 7.5775 35.1983 6.7725 35.035C5.97917 34.8717 5.20917 34.6442 4.4625 34.3525C3.7275 34.0608 3.03333 33.7108 2.38 33.3025C1.72667 32.8942 1.155 32.4392 0.665 31.9375L2.205 29.4525C2.33333 29.2658 2.5025 29.1142 2.7125 28.9975C2.9225 28.8692 3.14417 28.805 3.3775 28.805C3.6925 28.805 4.025 28.9217 4.375 29.155C4.725 29.3883 5.1275 29.645 5.5825 29.925C6.0375 30.205 6.5625 30.4617 7.1575 30.695C7.76417 30.9283 8.4875 31.045 9.3275 31.045C10.5525 31.045 11.4975 30.765 12.1625 30.205C12.8392 29.645 13.1775 28.8108 13.1775 27.7025C13.1775 27.0608 13.0083 26.5417 12.67 26.145C12.3433 25.7483 11.9117 25.4158 11.375 25.1475C10.8383 24.8792 10.2258 24.6517 9.5375 24.465C8.84917 24.2667 8.14333 24.0508 7.42 23.8175C6.69667 23.5842 5.99083 23.3042 5.3025 22.9775C4.61417 22.6508 4.00167 22.2192 3.465 21.6825C2.92833 21.1458 2.49083 20.4808 2.1525 19.6875C1.82583 18.8942 1.6625 17.9083 1.6625 16.73C1.6625 15.785 1.84917 14.8692 2.2225 13.9825C2.59583 13.0958 3.14417 12.3083 3.8675 11.62C4.59083 10.9317 5.4775 10.3775 6.5275 9.9575C7.58917 9.5375 8.8025 9.3275 10.1675 9.3275C11.6958 9.3275 13.1075 9.56666 14.4025 10.045C15.7092 10.5117 16.8117 11.165 17.71 12.005L16.415 14.4725ZM43.6898 9.6075V35H38.4048V24.0625H27.2223V35H21.9373V9.6075H27.2223V20.3875H38.4048V9.6075H43.6898ZM85.9518 22.2425C87.5968 22.2425 88.7985 21.8458 89.5568 21.0525C90.3268 20.2592 90.7118 19.1742 90.7118 17.7975C90.7118 17.1675 90.6126 16.5958 90.4143 16.0825C90.2276 15.5575 89.936 15.1142 89.5393 14.7525C89.1543 14.3792 88.6643 14.0933 88.0693 13.895C87.4743 13.6967 86.7685 13.5975 85.9518 13.5975H82.6268V22.2425H85.9518ZM85.9518 9.6075C87.6901 9.6075 89.1893 9.81167 90.4493 10.22C91.721 10.6283 92.7651 11.2 93.5818 11.935C94.3985 12.6583 94.9993 13.5217 95.3843 14.525C95.781 15.5283 95.9793 16.6192 95.9793 17.7975C95.9793 19.0458 95.7751 20.1892 95.3668 21.2275C94.9585 22.2658 94.3401 23.1583 93.5118 23.905C92.6835 24.6517 91.6393 25.235 90.3793 25.655C89.1193 26.0633 87.6435 26.2675 85.9518 26.2675H82.6268V35H77.3768V9.6075H85.9518ZM107.895 22.2425C109.54 22.2425 110.742 21.8458 111.5 21.0525C112.27 20.2592 112.655 19.1742 112.655 17.7975C112.655 17.1675 112.556 16.5958 112.358 16.0825C112.171 15.5575 111.879 15.1142 111.483 14.7525C111.098 14.3792 110.608 14.0933 110.013 13.895C109.418 13.6967 108.712 13.5975 107.895 13.5975H104.57V22.2425H107.895ZM107.895 9.6075C109.633 9.6075 111.133 9.81167 112.393 10.22C113.664 10.6283 114.708 11.2 115.525 11.935C116.342 12.6583 116.943 13.5217 117.328 14.525C117.724 15.5283 117.923 16.6192 117.923 17.7975C117.923 19.0458 117.718 20.1892 117.31 21.2275C116.902 22.2658 116.283 23.1583 115.455 23.905C114.627 24.6517 113.583 25.235 112.323 25.655C111.063 26.0633 109.587 26.2675 107.895 26.2675H104.57V35H99.3202V9.6075H107.895ZM126.549 13.72V20.2475H135.019V24.22H126.549V30.8875H137.434V35H121.264V9.6075H137.434V13.72H126.549ZM149.306 21.63C150.158 21.63 150.893 21.525 151.511 21.315C152.13 21.0933 152.637 20.7958 153.034 20.4225C153.43 20.0375 153.722 19.5883 153.909 19.075C154.095 18.5617 154.189 18.0017 154.189 17.395C154.189 16.1933 153.786 15.26 152.981 14.595C152.188 13.93 150.975 13.5975 149.341 13.5975H146.611V21.63H149.306ZM161.609 35H156.866C155.98 35 155.338 34.6617 154.941 33.985L150.111 26.1975C149.913 25.8942 149.691 25.6725 149.446 25.5325C149.213 25.3925 148.863 25.3225 148.396 25.3225H146.611V35H141.361V9.6075H149.341C151.115 9.6075 152.631 9.79417 153.891 10.1675C155.151 10.5292 156.184 11.0367 156.989 11.69C157.794 12.3433 158.383 13.125 158.756 14.035C159.13 14.9333 159.316 15.925 159.316 17.01C159.316 17.85 159.194 18.6492 158.949 19.4075C158.715 20.1542 158.371 20.8367 157.916 21.455C157.461 22.0733 156.901 22.6217 156.236 23.1C155.571 23.5783 154.813 23.9633 153.961 24.255C154.3 24.4417 154.615 24.6692 154.906 24.9375C155.198 25.1942 155.46 25.5033 155.694 25.865L161.609 35Z" fill="black"/>
<path d="M73.5427 22.295C73.5427 24.15 73.2277 25.8708 72.5977 27.4575C71.9793 29.0442 71.0985 30.415 69.9552 31.57C68.8235 32.725 67.4585 33.635 65.8602 34.3C64.2618 34.9533 62.4885 35.28 60.5402 35.28C58.5918 35.28 56.8185 34.9533 55.2202 34.3C53.6218 33.635 52.251 32.725 51.1077 31.57C49.9643 30.415 49.0777 29.0442 48.4477 27.4575C47.8293 25.8708 47.5202 24.15 47.5202 22.295C47.5202 20.44 47.8293 18.725 48.4477 17.15C49.0777 15.5633 49.9643 14.1925 51.1077 13.0375C52.251 11.8825 53.6218 10.9783 55.2202 10.325C56.8185 9.66 58.5918 9.3275 60.5402 9.3275C62.4885 9.3275 64.2618 9.66 65.8602 10.325C67.4585 10.9783 68.8235 11.8883 69.9552 13.055C71.0985 14.21 71.9793 15.5808 72.5977 17.1675C73.2277 18.7425 73.5427 20.4517 73.5427 22.295ZM68.1702 22.295C68.1702 20.965 67.9952 19.775 67.6452 18.725C67.2952 17.6633 66.7877 16.765 66.1227 16.03C65.4693 15.2833 64.6702 14.7175 63.7252 14.3325C62.7918 13.9358 61.7302 13.7375 60.5402 13.7375C59.3502 13.7375 58.2827 13.9358 57.3377 14.3325C56.3927 14.7175 55.5877 15.2833 54.9227 16.03C54.2693 16.765 53.7677 17.6633 53.4177 18.725C53.0677 19.775 52.8927 20.965 52.8927 22.295C52.8927 23.6367 53.0677 24.8383 53.4177 25.9C53.7677 26.95 54.2693 27.8425 54.9227 28.5775C55.5877 29.3125 56.3927 29.8783 57.3377 30.275C58.2827 30.66 59.3502 30.8525 60.5402 30.8525C61.7302 30.8525 62.7918 30.66 63.7252 30.275C64.6702 29.8783 65.4693 29.3125 66.1227 28.5775C66.7877 27.8425 67.2952 26.95 67.6452 25.9C67.9952 24.8383 68.1702 23.6367 68.1702 22.295Z" fill="#8BC34A"/>
<path d="M37.544 43.836C37.5 43.908 37.454 43.962 37.406 43.998C37.358 44.03 37.298 44.046 37.226 44.046C37.15 44.046 37.064 44.014 36.968 43.95C36.876 43.886 36.76 43.816 36.62 43.74C36.484 43.66 36.322 43.588 36.134 43.524C35.946 43.456 35.722 43.422 35.462 43.422C35.222 43.422 35.01 43.452 34.826 43.512C34.646 43.572 34.494 43.656 34.37 43.764C34.246 43.872 34.152 44 34.088 44.148C34.028 44.292 33.998 44.45 33.998 44.622C33.998 44.842 34.056 45.026 34.172 45.174C34.288 45.318 34.44 45.442 34.628 45.546C34.82 45.65 35.038 45.742 35.282 45.822C35.526 45.898 35.774 45.98 36.026 46.068C36.282 46.156 36.532 46.256 36.776 46.368C37.02 46.48 37.236 46.622 37.424 46.794C37.616 46.966 37.77 47.176 37.886 47.424C38.002 47.672 38.06 47.974 38.06 48.33C38.06 48.714 37.994 49.074 37.862 49.41C37.73 49.746 37.538 50.04 37.286 50.292C37.038 50.54 36.73 50.736 36.362 50.88C35.998 51.024 35.582 51.096 35.114 51.096C34.838 51.096 34.568 51.068 34.304 51.012C34.044 50.96 33.794 50.886 33.554 50.79C33.318 50.69 33.096 50.57 32.888 50.43C32.68 50.29 32.494 50.134 32.33 49.962L32.738 49.29C32.774 49.234 32.82 49.19 32.876 49.158C32.932 49.126 32.994 49.11 33.062 49.11C33.154 49.11 33.256 49.154 33.368 49.242C33.48 49.326 33.614 49.42 33.77 49.524C33.93 49.624 34.122 49.718 34.346 49.806C34.57 49.89 34.838 49.932 35.15 49.932C35.658 49.932 36.05 49.808 36.326 49.56C36.606 49.312 36.746 48.97 36.746 48.534C36.746 48.29 36.688 48.092 36.572 47.94C36.456 47.784 36.302 47.654 36.11 47.55C35.922 47.446 35.706 47.358 35.462 47.286C35.218 47.214 34.97 47.138 34.718 47.058C34.466 46.974 34.218 46.878 33.974 46.77C33.73 46.658 33.512 46.514 33.32 46.338C33.132 46.158 32.98 45.938 32.864 45.678C32.748 45.414 32.69 45.086 32.69 44.694C32.69 44.382 32.75 44.08 32.87 43.788C32.994 43.496 33.172 43.238 33.404 43.014C33.64 42.786 33.93 42.604 34.274 42.468C34.618 42.332 35.01 42.264 35.45 42.264C35.946 42.264 36.4 42.342 36.812 42.498C37.228 42.654 37.586 42.876 37.886 43.164L37.544 43.836ZM39.2196 51V44.88H39.9996C40.1756 44.88 40.2876 44.962 40.3356 45.126L40.4196 45.66C40.5316 45.532 40.6476 45.416 40.7676 45.312C40.8876 45.204 41.0156 45.112 41.1516 45.036C41.2916 44.956 41.4396 44.894 41.5956 44.85C41.7556 44.806 41.9276 44.784 42.1116 44.784C42.3076 44.784 42.4876 44.812 42.6516 44.868C42.8156 44.924 42.9596 45.004 43.0836 45.108C43.2116 45.212 43.3216 45.338 43.4136 45.486C43.5056 45.634 43.5816 45.8 43.6416 45.984C43.7336 45.772 43.8496 45.59 43.9896 45.438C44.1296 45.286 44.2856 45.162 44.4576 45.066C44.6296 44.97 44.8116 44.9 45.0036 44.856C45.1996 44.808 45.3976 44.784 45.5976 44.784C45.9256 44.784 46.2176 44.836 46.4736 44.94C46.7336 45.044 46.9516 45.196 47.1276 45.396C47.3076 45.592 47.4436 45.834 47.5356 46.122C47.6276 46.41 47.6736 46.738 47.6736 47.106V51H46.3836V47.106C46.3836 46.674 46.2896 46.35 46.1016 46.134C45.9176 45.914 45.6436 45.804 45.2796 45.804C45.1156 45.804 44.9616 45.832 44.8176 45.888C44.6736 45.944 44.5476 46.026 44.4396 46.134C44.3316 46.242 44.2456 46.378 44.1816 46.542C44.1216 46.702 44.0916 46.89 44.0916 47.106V51H42.8016V47.106C42.8016 46.658 42.7116 46.33 42.5316 46.122C42.3516 45.91 42.0876 45.804 41.7396 45.804C41.4996 45.804 41.2776 45.866 41.0736 45.99C40.8696 46.11 40.6816 46.276 40.5096 46.488V51H39.2196ZM52.4505 48.324C51.9905 48.34 51.6025 48.378 51.2865 48.438C50.9705 48.494 50.7145 48.568 50.5185 48.66C50.3225 48.748 50.1805 48.854 50.0925 48.978C50.0085 49.102 49.9665 49.238 49.9665 49.386C49.9665 49.53 49.9885 49.654 50.0325 49.758C50.0805 49.858 50.1445 49.942 50.2245 50.01C50.3085 50.074 50.4045 50.122 50.5125 50.154C50.6245 50.182 50.7465 50.196 50.8785 50.196C51.2145 50.196 51.5025 50.134 51.7425 50.01C51.9865 49.882 52.2225 49.698 52.4505 49.458V48.324ZM49.0305 45.732C49.7225 45.088 50.5465 44.766 51.5025 44.766C51.8545 44.766 52.1665 44.824 52.4385 44.94C52.7145 45.052 52.9445 45.212 53.1285 45.42C53.3165 45.628 53.4585 45.876 53.5545 46.164C53.6545 46.448 53.7045 46.764 53.7045 47.112V51H53.1285C53.0045 51 52.9105 50.982 52.8465 50.946C52.7825 50.906 52.7285 50.828 52.6845 50.712L52.5585 50.214C52.4025 50.354 52.2485 50.48 52.0965 50.592C51.9445 50.7 51.7865 50.792 51.6225 50.868C51.4625 50.944 51.2885 51 51.1005 51.036C50.9165 51.076 50.7125 51.096 50.4885 51.096C50.2405 51.096 50.0085 51.062 49.7925 50.994C49.5805 50.926 49.3965 50.824 49.2405 50.688C49.0845 50.548 48.9605 50.376 48.8685 50.172C48.7805 49.968 48.7365 49.728 48.7365 49.452C48.7365 49.216 48.7985 48.986 48.9225 48.762C49.0505 48.538 49.2585 48.338 49.5465 48.162C49.8385 47.982 50.2205 47.834 50.6925 47.718C51.1685 47.602 51.7545 47.536 52.4505 47.52V47.112C52.4505 46.672 52.3565 46.344 52.1685 46.128C51.9805 45.912 51.7045 45.804 51.3405 45.804C51.0925 45.804 50.8845 45.836 50.7165 45.9C50.5485 45.96 50.4025 46.026 50.2785 46.098C50.1545 46.17 50.0445 46.238 49.9485 46.302C49.8525 46.362 49.7505 46.392 49.6425 46.392C49.5545 46.392 49.4785 46.37 49.4145 46.326C49.3545 46.278 49.3045 46.22 49.2645 46.152L49.0305 45.732ZM56.4337 46.014C56.6257 45.626 56.8577 45.322 57.1297 45.102C57.4017 44.878 57.7277 44.766 58.1077 44.766C58.2397 44.766 58.3637 44.782 58.4797 44.814C58.5957 44.842 58.6997 44.886 58.7917 44.946L58.7017 45.918C58.6857 45.986 58.6597 46.034 58.6237 46.062C58.5917 46.086 58.5477 46.098 58.4917 46.098C58.4317 46.098 58.3457 46.088 58.2337 46.068C58.1217 46.044 58.0037 46.032 57.8797 46.032C57.6997 46.032 57.5397 46.058 57.3997 46.11C57.2637 46.162 57.1397 46.238 57.0277 46.338C56.9197 46.438 56.8237 46.56 56.7397 46.704C56.6557 46.848 56.5777 47.012 56.5057 47.196V51H55.2157V44.88H55.9657C56.1017 44.88 56.1957 44.906 56.2477 44.958C56.2997 45.006 56.3357 45.092 56.3557 45.216L56.4337 46.014ZM61.6074 51.096C61.0994 51.096 60.7074 50.954 60.4314 50.67C60.1594 50.382 60.0234 49.978 60.0234 49.458V45.894H59.3514C59.2794 45.894 59.2174 45.872 59.1654 45.828C59.1134 45.78 59.0874 45.71 59.0874 45.618V45.096L60.0774 44.952L60.3594 43.182C60.3794 43.114 60.4134 43.06 60.4614 43.02C60.5094 42.976 60.5734 42.954 60.6534 42.954H61.3134V44.964H63.0114V45.894H61.3134V49.368C61.3134 49.588 61.3674 49.756 61.4754 49.872C61.5834 49.988 61.7274 50.046 61.9074 50.046C62.0074 50.046 62.0934 50.034 62.1654 50.01C62.2374 49.982 62.2994 49.954 62.3514 49.926C62.4034 49.894 62.4474 49.866 62.4834 49.842C62.5234 49.814 62.5614 49.8 62.5974 49.8C62.6694 49.8 62.7274 49.84 62.7714 49.92L63.1554 50.55C62.9554 50.726 62.7194 50.862 62.4474 50.958C62.1754 51.05 61.8954 51.096 61.6074 51.096ZM76.4485 42.36V51H75.2125V45.078C75.2125 44.982 75.2145 44.878 75.2185 44.766C75.2265 44.65 75.2365 44.534 75.2485 44.418L72.4705 49.548C72.3625 49.76 72.1965 49.866 71.9725 49.866H71.7745C71.5465 49.866 71.3805 49.76 71.2765 49.548L68.4565 44.406C68.4685 44.522 68.4765 44.638 68.4805 44.754C68.4885 44.87 68.4925 44.978 68.4925 45.078V51H67.2565V42.36H68.3065C68.4305 42.36 68.5265 42.372 68.5945 42.396C68.6625 42.416 68.7245 42.482 68.7805 42.594L71.5525 47.616C71.6125 47.732 71.6685 47.852 71.7205 47.976C71.7765 48.096 71.8265 48.22 71.8705 48.348C71.9185 48.22 71.9685 48.094 72.0205 47.97C72.0765 47.842 72.1345 47.72 72.1945 47.604L74.9245 42.594C74.9805 42.482 75.0425 42.416 75.1105 42.396C75.1785 42.372 75.2745 42.36 75.3985 42.36H76.4485ZM81.3607 48.324C80.9007 48.34 80.5127 48.378 80.1967 48.438C79.8807 48.494 79.6247 48.568 79.4287 48.66C79.2327 48.748 79.0907 48.854 79.0027 48.978C78.9187 49.102 78.8767 49.238 78.8767 49.386C78.8767 49.53 78.8987 49.654 78.9427 49.758C78.9907 49.858 79.0547 49.942 79.1347 50.01C79.2187 50.074 79.3147 50.122 79.4227 50.154C79.5347 50.182 79.6567 50.196 79.7887 50.196C80.1247 50.196 80.4127 50.134 80.6527 50.01C80.8967 49.882 81.1327 49.698 81.3607 49.458V48.324ZM77.9407 45.732C78.6327 45.088 79.4567 44.766 80.4127 44.766C80.7647 44.766 81.0767 44.824 81.3487 44.94C81.6247 45.052 81.8547 45.212 82.0387 45.42C82.2267 45.628 82.3687 45.876 82.4647 46.164C82.5647 46.448 82.6147 46.764 82.6147 47.112V51H82.0387C81.9147 51 81.8207 50.982 81.7567 50.946C81.6927 50.906 81.6387 50.828 81.5947 50.712L81.4687 50.214C81.3127 50.354 81.1587 50.48 81.0067 50.592C80.8547 50.7 80.6967 50.792 80.5327 50.868C80.3727 50.944 80.1987 51 80.0107 51.036C79.8267 51.076 79.6227 51.096 79.3987 51.096C79.1507 51.096 78.9187 51.062 78.7027 50.994C78.4907 50.926 78.3067 50.824 78.1507 50.688C77.9947 50.548 77.8707 50.376 77.7787 50.172C77.6907 49.968 77.6467 49.728 77.6467 49.452C77.6467 49.216 77.7087 48.986 77.8327 48.762C77.9607 48.538 78.1687 48.338 78.4567 48.162C78.7487 47.982 79.1307 47.834 79.6027 47.718C80.0787 47.602 80.6647 47.536 81.3607 47.52V47.112C81.3607 46.672 81.2667 46.344 81.0787 46.128C80.8907 45.912 80.6147 45.804 80.2507 45.804C80.0027 45.804 79.7947 45.836 79.6267 45.9C79.4587 45.96 79.3127 46.026 79.1887 46.098C79.0647 46.17 78.9547 46.238 78.8587 46.302C78.7627 46.362 78.6607 46.392 78.5527 46.392C78.4647 46.392 78.3887 46.37 78.3247 46.326C78.2647 46.278 78.2147 46.22 78.1747 46.152L77.9407 45.732ZM85.3438 46.014C85.5358 45.626 85.7678 45.322 86.0398 45.102C86.3118 44.878 86.6378 44.766 87.0178 44.766C87.1498 44.766 87.2738 44.782 87.3898 44.814C87.5058 44.842 87.6098 44.886 87.7018 44.946L87.6118 45.918C87.5958 45.986 87.5698 46.034 87.5338 46.062C87.5018 46.086 87.4578 46.098 87.4018 46.098C87.3418 46.098 87.2558 46.088 87.1438 46.068C87.0318 46.044 86.9138 46.032 86.7898 46.032C86.6098 46.032 86.4498 46.058 86.3098 46.11C86.1738 46.162 86.0498 46.238 85.9378 46.338C85.8298 46.438 85.7338 46.56 85.6498 46.704C85.5658 46.848 85.4878 47.012 85.4158 47.196V51H84.1258V44.88H84.8758C85.0118 44.88 85.1058 44.906 85.1578 44.958C85.2098 45.006 85.2458 45.092 85.2658 45.216L85.3438 46.014ZM89.8455 42.12V47.268H90.1215C90.2095 47.268 90.2815 47.256 90.3375 47.232C90.3935 47.208 90.4515 47.158 90.5115 47.082L92.2275 45.12C92.2875 45.04 92.3535 44.98 92.4255 44.94C92.4975 44.9 92.5895 44.88 92.7015 44.88H93.8715L91.8075 47.208C91.6875 47.364 91.5555 47.488 91.4115 47.58C91.4915 47.636 91.5615 47.7 91.6215 47.772C91.6815 47.84 91.7395 47.918 91.7955 48.006L93.9975 51H92.8455C92.7415 51 92.6515 50.984 92.5755 50.952C92.5035 50.916 92.4395 50.852 92.3835 50.76L90.6135 48.36C90.5535 48.268 90.4935 48.21 90.4335 48.186C90.3735 48.158 90.2835 48.144 90.1635 48.144H89.8455V51H88.5555V42.12H89.8455ZM98.5109 47.25C98.5109 47.034 98.4789 46.834 98.4149 46.65C98.3549 46.462 98.2649 46.3 98.1449 46.164C98.0249 46.024 97.8749 45.916 97.6949 45.84C97.5189 45.76 97.3149 45.72 97.0829 45.72C96.6149 45.72 96.2469 45.854 95.9789 46.122C95.7109 46.39 95.5409 46.766 95.4689 47.25H98.5109ZM95.4329 48.042C95.4489 48.39 95.5029 48.692 95.5949 48.948C95.6869 49.2 95.8089 49.41 95.9609 49.578C96.1169 49.746 96.3009 49.872 96.5129 49.956C96.7289 50.036 96.9689 50.076 97.2329 50.076C97.4849 50.076 97.7029 50.048 97.8869 49.992C98.0709 49.932 98.2309 49.868 98.3669 49.8C98.5029 49.728 98.6189 49.664 98.7149 49.608C98.8109 49.548 98.8989 49.518 98.9789 49.518C99.0829 49.518 99.1629 49.558 99.2189 49.638L99.5849 50.112C99.4329 50.292 99.2609 50.444 99.0689 50.568C98.8769 50.692 98.6729 50.794 98.4569 50.874C98.2409 50.95 98.0189 51.004 97.7909 51.036C97.5629 51.072 97.3409 51.09 97.1249 51.09C96.7009 51.09 96.3069 51.02 95.9429 50.88C95.5829 50.736 95.2689 50.526 95.0009 50.25C94.7369 49.974 94.5289 49.632 94.3769 49.224C94.2289 48.816 94.1549 48.346 94.1549 47.814C94.1549 47.39 94.2209 46.994 94.3529 46.626C94.4889 46.258 94.6809 45.938 94.9289 45.666C95.1809 45.394 95.4849 45.18 95.8409 45.024C96.2009 44.864 96.6069 44.784 97.0589 44.784C97.4349 44.784 97.7829 44.846 98.1029 44.97C98.4229 45.09 98.6989 45.268 98.9309 45.504C99.1629 45.74 99.3429 46.03 99.4709 46.374C99.6029 46.714 99.6689 47.102 99.6689 47.538C99.6689 47.738 99.6469 47.872 99.6029 47.94C99.5589 48.008 99.4789 48.042 99.3629 48.042H95.4329ZM102.775 51.096C102.267 51.096 101.875 50.954 101.599 50.67C101.327 50.382 101.191 49.978 101.191 49.458V45.894H100.519C100.447 45.894 100.385 45.872 100.333 45.828C100.281 45.78 100.255 45.71 100.255 45.618V45.096L101.245 44.952L101.527 43.182C101.547 43.114 101.581 43.06 101.629 43.02C101.677 42.976 101.741 42.954 101.821 42.954H102.481V44.964H104.179V45.894H102.481V49.368C102.481 49.588 102.535 49.756 102.643 49.872C102.751 49.988 102.895 50.046 103.075 50.046C103.175 50.046 103.261 50.034 103.333 50.01C103.405 49.982 103.467 49.954 103.519 49.926C103.571 49.894 103.615 49.866 103.651 49.842C103.691 49.814 103.729 49.8 103.765 49.8C103.837 49.8 103.895 49.84 103.939 49.92L104.323 50.55C104.123 50.726 103.887 50.862 103.615 50.958C103.343 51.05 103.063 51.096 102.775 51.096ZM106.486 49.464C106.666 49.696 106.862 49.86 107.074 49.956C107.29 50.048 107.528 50.094 107.788 50.094C108.292 50.094 108.684 49.91 108.964 49.542C109.248 49.174 109.39 48.626 109.39 47.898C109.39 47.522 109.358 47.202 109.294 46.938C109.23 46.67 109.138 46.452 109.018 46.284C108.898 46.116 108.752 45.994 108.58 45.918C108.408 45.842 108.214 45.804 107.998 45.804C107.67 45.804 107.386 45.876 107.146 46.02C106.91 46.16 106.69 46.362 106.486 46.626V49.464ZM106.42 45.768C106.676 45.468 106.966 45.226 107.29 45.042C107.618 44.858 107.998 44.766 108.43 44.766C108.774 44.766 109.086 44.836 109.366 44.976C109.646 45.112 109.886 45.312 110.086 45.576C110.286 45.84 110.44 46.168 110.548 46.56C110.66 46.948 110.716 47.394 110.716 47.898C110.716 48.35 110.654 48.772 110.53 49.164C110.41 49.552 110.236 49.89 110.008 50.178C109.78 50.462 109.504 50.686 109.18 50.85C108.856 51.01 108.49 51.09 108.082 51.09C107.722 51.09 107.416 51.032 107.164 50.916C106.916 50.8 106.69 50.64 106.486 50.436V53.034H105.196V44.88H105.976C106.152 44.88 106.264 44.962 106.312 45.126L106.42 45.768ZM113.284 42.12V51H111.994V42.12H113.284ZM118.146 48.324C117.686 48.34 117.298 48.378 116.982 48.438C116.666 48.494 116.41 48.568 116.214 48.66C116.018 48.748 115.876 48.854 115.788 48.978C115.704 49.102 115.662 49.238 115.662 49.386C115.662 49.53 115.684 49.654 115.728 49.758C115.776 49.858 115.84 49.942 115.92 50.01C116.004 50.074 116.1 50.122 116.208 50.154C116.32 50.182 116.442 50.196 116.574 50.196C116.91 50.196 117.198 50.134 117.438 50.01C117.682 49.882 117.918 49.698 118.146 49.458V48.324ZM114.726 45.732C115.418 45.088 116.242 44.766 117.198 44.766C117.55 44.766 117.862 44.824 118.134 44.94C118.41 45.052 118.64 45.212 118.824 45.42C119.012 45.628 119.154 45.876 119.25 46.164C119.35 46.448 119.4 46.764 119.4 47.112V51H118.824C118.7 51 118.606 50.982 118.542 50.946C118.478 50.906 118.424 50.828 118.38 50.712L118.254 50.214C118.098 50.354 117.944 50.48 117.792 50.592C117.64 50.7 117.482 50.792 117.318 50.868C117.158 50.944 116.984 51 116.796 51.036C116.612 51.076 116.408 51.096 116.184 51.096C115.936 51.096 115.704 51.062 115.488 50.994C115.276 50.926 115.092 50.824 114.936 50.688C114.78 50.548 114.656 50.376 114.564 50.172C114.476 49.968 114.432 49.728 114.432 49.452C114.432 49.216 114.494 48.986 114.618 48.762C114.746 48.538 114.954 48.338 115.242 48.162C115.534 47.982 115.916 47.834 116.388 47.718C116.864 47.602 117.45 47.536 118.146 47.52V47.112C118.146 46.672 118.052 46.344 117.864 46.128C117.676 45.912 117.4 45.804 117.036 45.804C116.788 45.804 116.58 45.836 116.412 45.9C116.244 45.96 116.098 46.026 115.974 46.098C115.85 46.17 115.74 46.238 115.644 46.302C115.548 46.362 115.446 46.392 115.338 46.392C115.25 46.392 115.174 46.37 115.11 46.326C115.05 46.278 115 46.22 114.96 46.152L114.726 45.732ZM125.237 46.08C125.197 46.132 125.159 46.172 125.123 46.2C125.087 46.228 125.035 46.242 124.967 46.242C124.899 46.242 124.827 46.218 124.751 46.17C124.679 46.122 124.591 46.07 124.487 46.014C124.387 45.954 124.265 45.9 124.121 45.852C123.977 45.804 123.797 45.78 123.581 45.78C123.301 45.78 123.055 45.83 122.843 45.93C122.635 46.03 122.459 46.174 122.315 46.362C122.175 46.546 122.069 46.772 121.997 47.04C121.929 47.304 121.895 47.602 121.895 47.934C121.895 48.278 121.933 48.584 122.009 48.852C122.085 49.12 122.193 49.346 122.333 49.53C122.477 49.714 122.649 49.854 122.849 49.95C123.053 50.046 123.281 50.094 123.533 50.094C123.781 50.094 123.983 50.064 124.139 50.004C124.295 49.944 124.425 49.878 124.529 49.806C124.633 49.734 124.721 49.668 124.793 49.608C124.869 49.548 124.949 49.518 125.033 49.518C125.137 49.518 125.217 49.558 125.273 49.638L125.639 50.112C125.491 50.292 125.327 50.444 125.147 50.568C124.967 50.692 124.777 50.794 124.577 50.874C124.377 50.95 124.169 51.004 123.953 51.036C123.737 51.072 123.519 51.09 123.299 51.09C122.919 51.09 122.563 51.02 122.231 50.88C121.903 50.736 121.615 50.53 121.367 50.262C121.123 49.99 120.929 49.66 120.785 49.272C120.645 48.88 120.575 48.434 120.575 47.934C120.575 47.482 120.639 47.064 120.767 46.68C120.895 46.292 121.081 45.958 121.325 45.678C121.573 45.398 121.879 45.18 122.243 45.024C122.607 44.864 123.027 44.784 123.503 44.784C123.947 44.784 124.337 44.856 124.673 45C125.013 45.144 125.315 45.348 125.579 45.612L125.237 46.08ZM130.585 47.25C130.585 47.034 130.553 46.834 130.489 46.65C130.429 46.462 130.339 46.3 130.219 46.164C130.099 46.024 129.949 45.916 129.769 45.84C129.593 45.76 129.389 45.72 129.157 45.72C128.689 45.72 128.321 45.854 128.053 46.122C127.785 46.39 127.615 46.766 127.543 47.25H130.585ZM127.507 48.042C127.523 48.39 127.577 48.692 127.669 48.948C127.761 49.2 127.883 49.41 128.035 49.578C128.191 49.746 128.375 49.872 128.587 49.956C128.803 50.036 129.043 50.076 129.307 50.076C129.559 50.076 129.777 50.048 129.961 49.992C130.145 49.932 130.305 49.868 130.441 49.8C130.577 49.728 130.693 49.664 130.789 49.608C130.885 49.548 130.973 49.518 131.053 49.518C131.157 49.518 131.237 49.558 131.293 49.638L131.659 50.112C131.507 50.292 131.335 50.444 131.143 50.568C130.951 50.692 130.747 50.794 130.531 50.874C130.315 50.95 130.093 51.004 129.865 51.036C129.637 51.072 129.415 51.09 129.199 51.09C128.775 51.09 128.381 51.02 128.017 50.88C127.657 50.736 127.343 50.526 127.075 50.25C126.811 49.974 126.603 49.632 126.451 49.224C126.303 48.816 126.229 48.346 126.229 47.814C126.229 47.39 126.295 46.994 126.427 46.626C126.563 46.258 126.755 45.938 127.003 45.666C127.255 45.394 127.559 45.18 127.915 45.024C128.275 44.864 128.681 44.784 129.133 44.784C129.509 44.784 129.857 44.846 130.177 44.97C130.497 45.09 130.773 45.268 131.005 45.504C131.237 45.74 131.417 46.03 131.545 46.374C131.677 46.714 131.743 47.102 131.743 47.538C131.743 47.738 131.721 47.872 131.677 47.94C131.633 48.008 131.553 48.042 131.437 48.042H127.507Z" fill="black"/>
</svg>
