<svg width="95" height="90" viewBox="0 0 95 90" fill="none" xmlns="http://www.w3.org/2000/svg">
<path d="M42.3489 3.0483C33.6774 6.75349 26.8409 13.753 21.0954 21.2271C15.534 28.4746 10.7945 36.3029 6.06207 44.1171C3.73127 47.964 1.36505 51.8959 0.429893 56.2954C-1.68129 66.2207 4.23427 76.5925 12.679 82.2175C21.1237 87.8497 31.5946 89.5358 41.7396 89.9184C53.9887 90.3789 66.7266 89.0045 77.3392 82.8622C81.4694 80.4677 85.2667 77.3151 87.718 73.2202C90.0488 69.3167 91.0406 64.7755 91.8766 60.3123C93.7752 50.2027 95.0858 39.7814 93.2439 29.6648C89.0782 6.73932 64.1974 -6.28906 42.3489 3.0483Z" fill="#FDABBB"/>
<path d="M47.7792 35.6474C47.7792 35.6474 45.6973 32.9862 44.2612 36.1224C42.8251 39.2585 47.7792 40.7798 47.7792 40.7798C47.7792 40.7798 53.208 38.9862 51.7519 35.577C50.2958 32.1678 47.7792 35.6474 47.7792 35.6474Z" fill="#FF5D7D"/>
<path d="M61.2603 18.0793C60.0563 19.0597 57.6606 21.2118 57.8671 22.6652C57.8671 22.6652 56.7615 25.3322 50.4037 23.3131C49.8882 23.1497 49.335 23.1529 48.8219 23.3246C46.1426 24.222 37.9276 27.2733 39.1169 30.5717C40.5348 34.5032 43.8698 32.9891 44.6493 31.9307C45.4287 30.8723 45.9074 29.3877 49.026 30.029C52.1454 30.6703 56.6885 32.636 61.9258 27.9992C61.9258 27.9992 62.9118 29.7128 65.8296 26.361C68.5556 23.2293 66.1132 20.1091 62.6667 17.9914C62.2266 17.7196 61.6627 17.7525 61.2603 18.0793Z" fill="#FF5D7D"/>
<path d="M35.4745 56.0892C35.6907 56.2125 38.9825 54.1481 39.7181 50.8816C40.1935 48.7713 43.2899 49.4921 45.422 50.2676C46.8592 50.7895 48.4604 50.7256 49.8437 50.0882C53.0079 48.6293 58.1917 45.9791 57.9945 44.3532C57.7112 42.0197 54.6721 40.9259 52.8853 42.4231C51.0986 43.9194 50.8079 45.3245 49.0543 44.8978C47.2999 44.4718 42.4334 41.9136 35.4737 45.2176C30.2535 47.6962 29.8824 48.9679 30.0224 49.4484C30.0836 49.6583 30.13 49.8713 30.1309 50.089C30.1375 51.0041 30.6842 53.3578 35.4745 56.0892Z" fill="#FF5D7D"/>
<path d="M67.3681 24.2005L61.9871 18.1974C61.9772 18.1864 61.9665 18.1754 61.9551 18.1644C61.485 17.7145 60.723 17.6878 60.2202 18.1039L55.9317 21.648C55.6774 21.8584 55.5232 22.1513 55.4994 22.4716C55.4748 22.7927 55.5823 23.1037 55.8021 23.3471L55.9702 23.5331L55.6938 23.7616C54.9597 24.3685 53.8547 24.5499 52.7391 24.2468C52.7162 24.2405 49.5408 23.3777 49.5179 23.373C48.9387 23.2442 47.4409 23.0409 46.0111 23.9241C45.9882 23.9367 37.7927 28.4261 37.7705 28.4402C37.0224 28.9066 35.9807 30.0725 36.8206 31.4842C36.8239 31.4897 36.8272 31.4952 36.8305 31.5007C37.1906 32.0628 37.7098 32.3973 38.3152 32.4899C38.3373 33.0662 38.6056 33.6182 39.083 34.0139C40.0099 34.7817 41.4167 34.6844 42.2189 33.7972L45.2556 30.4384C45.3787 30.3025 45.482 30.1526 45.5649 29.9924L45.6904 29.943C45.8545 30.531 46.3015 31.1159 47.2161 31.364C51.0272 32.3988 51.8204 32.698 52.8876 32.5857C55.862 32.2803 56.5444 32.1869 58.0423 31.3617C59.1202 30.7681 60.1685 30.0741 61.1676 29.2952L61.3505 29.4978C61.8058 30.0026 62.6006 30.0568 63.1256 29.6226L67.2074 26.2489C67.8406 25.726 67.912 24.8074 67.3681 24.2005ZM41.2879 33.0269C40.6727 33.7077 39.5112 33.2562 39.5448 32.3737C39.5448 32.3737 43.1795 30.9346 43.1803 30.9346L41.2879 33.0269ZM57.4287 30.341C56.154 31.0429 55.725 31.1097 52.7695 31.4135C51.9599 31.4967 51.3258 31.2557 47.5525 30.2319C47.0693 30.1008 46.943 29.8534 46.8897 29.6784C46.8175 29.4397 46.8634 29.212 46.8634 29.212C46.8642 29.2089 46.8642 29.2065 46.8651 29.2041C46.8659 29.1986 46.8675 29.1939 46.8683 29.1892C46.8683 29.1877 46.9069 29.0306 47.0135 28.8932C47.1054 28.7747 47.2432 28.6593 47.5738 28.7032C48.7378 28.8563 51.5103 29.2112 51.5382 29.2151C51.8762 29.2583 52.1846 29.0314 52.2297 28.7095C52.2748 28.3868 52.0386 28.0908 51.7015 28.0476C51.6736 28.0445 48.9035 27.6896 47.7419 27.5365C46.6542 27.3928 46.0136 28.0359 45.7609 28.6436L44.8636 28.9977C37.7804 31.7927 39.3775 31.1858 38.8517 31.3311C37.8624 31.4638 37.184 30.2319 38.4284 29.4373L46.6362 24.9409C46.637 24.9409 46.637 24.9401 46.6378 24.9401C46.6477 24.9346 46.6575 24.9291 46.6674 24.9228C47.6952 24.2821 48.7886 24.4243 49.2258 24.5193L52.4036 25.3821C53.9195 25.7935 55.4502 25.5219 56.4985 24.6551L56.7749 24.4266C57.2442 24.9472 59.9478 27.9432 60.3645 28.4057C59.4245 29.1343 58.4393 29.7844 57.4287 30.341ZM66.4035 25.357C66.3904 25.368 62.3185 28.7393 62.3012 28.737C62.2774 28.7354 56.6995 22.5698 56.7356 22.5392L61.024 18.9951C61.0322 18.988 61.0429 18.9849 61.0527 18.9849C61.061 18.9849 61.0692 18.9872 61.0765 18.9911L66.4338 24.9668C66.538 25.083 66.5241 25.2581 66.4035 25.357Z" fill="#2B271E"/>
<path d="M56.8305 43.3531C56.7567 41.4539 54.2524 40.5792 52.9268 42.0459L49.8893 45.4054C49.7662 45.5413 49.6629 45.6912 49.58 45.8506L49.4545 45.9001C49.2904 45.3128 48.8434 44.7271 47.9288 44.479C43.8946 43.3837 43.368 43.1639 42.2696 43.2565C42.2655 43.2565 42.2614 43.2573 42.2581 43.2573C39.2837 43.5627 38.6013 43.6562 37.1034 44.4813C36.0256 45.0749 34.9772 45.769 33.9781 46.5478L33.7952 46.3452C33.3416 45.8428 32.5451 45.7862 32.0201 46.2212L27.7144 49.7786C27.2017 50.2018 27.1484 50.943 27.5946 51.4305L33.2677 57.6182C33.6927 58.0814 34.4309 58.1395 34.9132 57.7493C34.9149 57.7477 34.9223 57.7414 34.9247 57.7399L39.2132 54.1958C39.7398 53.7608 39.7981 53.0008 39.3436 52.4967L39.1755 52.3107L39.4519 52.0822C40.1861 51.4753 41.291 51.2939 42.4066 51.597L45.2595 52.3719C45.586 52.4606 45.9264 52.2793 46.0191 51.966C46.1118 51.6527 45.9223 51.3277 45.595 51.239L42.7421 50.464C41.2262 50.0526 39.6955 50.3243 38.6472 51.1911L38.3708 51.4195L34.7812 47.4397C35.7204 46.7095 36.7056 46.0595 37.7162 45.5028C38.9917 44.8001 39.4199 44.7334 42.382 44.4295C43.0743 44.3722 43.5074 44.4915 45.8805 45.144C47.7196 45.6496 48.0994 45.652 48.2544 46.1654C48.3266 46.4041 48.2807 46.6318 48.2807 46.6318C48.2503 46.7582 48.1937 46.8697 48.1306 46.9514C48.0387 47.0699 47.9001 47.1853 47.5703 47.1414C46.4055 46.9883 43.6337 46.6334 43.6058 46.6295C43.2679 46.5863 42.9595 46.8124 42.9143 47.1351C42.8692 47.4578 43.1055 47.7538 43.4426 47.797C43.4705 47.8009 46.2406 48.155 47.4021 48.3081C48.3635 48.4345 49.0755 47.9398 49.3831 47.201C49.4135 47.1893 55.5796 44.7569 55.6091 44.7428C56.2588 44.4272 56.8732 44.3549 57.2595 44.9493C57.705 45.7109 56.915 46.2801 56.7157 46.4073L48.5079 50.9037C48.5038 50.9061 48.5005 50.9076 48.4972 50.91C48.4907 50.9139 48.4833 50.9178 48.4775 50.9218C48.3422 51.0066 48.197 51.0819 48.0469 51.1463C47.7368 51.279 47.5974 51.6276 47.736 51.9244C47.8746 52.2212 48.2388 52.3546 48.5489 52.222C48.7532 52.1348 48.9517 52.032 49.1346 51.9189C49.1592 51.9055 57.3506 47.4177 57.3744 47.4036C59.6072 46.0123 58.5335 43.6138 56.8305 43.3531ZM38.4118 53.2662C38.4142 53.2685 38.4192 53.2748 38.4183 53.2858C38.4167 53.3031 34.1791 56.8001 34.1651 56.8111L28.5281 50.6619L32.8232 47.1123C32.8256 47.11 32.833 47.1045 32.8437 47.106C32.8551 47.1068 32.8609 47.1131 32.8633 47.1155C33.4425 47.7577 37.8179 52.6075 38.4118 53.2662ZM51.9646 44.9092L53.857 42.8161C54.4648 42.144 55.6337 42.575 55.6001 43.4693C55.6001 43.4701 51.9654 44.9092 51.9646 44.9092Z" fill="#2B271E"/>
<path d="M46.8683 36.1088C46.9831 36.3035 47.3235 36.5633 47.7246 36.5539C48.0569 36.5461 48.3645 36.3569 48.531 36.1001C49.3234 34.8816 50.982 35.1564 51.4766 36.2658C51.6104 36.5649 51.9713 36.7039 52.2846 36.5759C52.5972 36.4479 52.7424 36.1017 52.6087 35.8033C51.7687 33.9206 49.0888 33.4943 47.7 35.1862C46.016 33.1213 42.5552 34.2943 42.5576 36.8892C42.5609 39.6175 45.0283 41.7036 47.3375 42.747C47.5753 42.8546 47.8452 42.8491 48.0708 42.7462C49.7311 41.9925 51.4955 40.6547 52.3125 39.0396C52.4602 38.7468 52.3322 38.3951 52.0271 38.253C51.7211 38.1108 51.3536 38.2341 51.2051 38.5262C50.5399 39.8421 49.0658 40.9499 47.7025 41.607C45.7822 40.6978 43.7905 39.0067 43.7881 36.8876C43.7872 35.2899 46.0275 34.6932 46.8683 36.1088Z" fill="#2B271E"/>
</svg>
