<svg width="145" height="24" viewBox="0 0 145 24" fill="none" xmlns="http://www.w3.org/2000/svg">
<path d="M10.1655 15.5673C10.1655 16.7685 10.0154 17.8447 9.71508 18.7956C9.42478 19.7466 8.98932 20.5525 8.40872 21.2131C7.83813 21.8638 7.1324 22.3643 6.29153 22.7147C5.45065 23.0651 4.48465 23.2402 3.39352 23.2402C2.40249 23.2402 1.39144 23.1001 0.360374 22.8198C0.380395 22.5295 0.405421 22.2442 0.435452 21.9639C0.465483 21.6736 0.490509 21.3883 0.51053 21.108C0.53055 20.9379 0.590613 20.8027 0.690717 20.7026C0.800831 20.5925 0.966002 20.5374 1.18623 20.5374C1.36642 20.5374 1.60166 20.5825 1.89196 20.6726C2.19227 20.7627 2.59269 20.8077 3.09321 20.8077C3.75389 20.8077 4.34451 20.7076 4.86505 20.5074C5.38559 20.3072 5.82104 19.9969 6.1714 19.5764C6.52177 19.156 6.78704 18.6205 6.96723 17.9698C7.15742 17.3091 7.25252 16.5283 7.25252 15.6274V1.48268H10.1655V15.5673ZM24.4686 13.7354C24.4686 13.1147 24.3785 12.5492 24.1983 12.0386C24.0281 11.5181 23.7729 11.0726 23.4325 10.7022C23.1022 10.3218 22.6967 10.0315 22.2162 9.83134C21.7358 9.62112 21.1902 9.51601 20.5796 9.51601C19.2982 9.51601 18.2822 9.8914 17.5314 10.6422C16.7906 11.3829 16.3301 12.414 16.15 13.7354H24.4686ZM26.6308 20.8678C26.3005 21.2682 25.9051 21.6186 25.4446 21.9189C24.9841 22.2092 24.4886 22.4494 23.9581 22.6396C23.4375 22.8298 22.897 22.97 22.3364 23.0601C21.7758 23.1602 21.2202 23.2102 20.6696 23.2102C19.6186 23.2102 18.6475 23.035 17.7566 22.6847C16.8757 22.3243 16.1099 21.8038 15.4592 21.1231C14.8186 20.4323 14.3181 19.5815 13.9577 18.5704C13.5973 17.5594 13.4171 16.3982 13.4171 15.0868C13.4171 14.0257 13.5773 13.0347 13.8976 12.1137C14.228 11.1928 14.6984 10.3969 15.3091 9.72623C15.9197 9.04552 16.6655 8.51497 17.5464 8.13458C18.4273 7.74417 19.4183 7.54897 20.5195 7.54897C21.4304 7.54897 22.2713 7.70413 23.0421 8.01446C23.8229 8.31477 24.4936 8.75522 25.0542 9.33583C25.6248 9.90642 26.0702 10.6172 26.3906 11.468C26.7109 12.3089 26.8711 13.2699 26.8711 14.351C26.8711 14.7715 26.826 15.0518 26.7359 15.1919C26.6458 15.332 26.4757 15.4021 26.2254 15.4021H16.0599C16.0899 16.3631 16.22 17.199 16.4503 17.9097C16.6905 18.6205 17.0209 19.2161 17.4413 19.6966C17.8617 20.1671 18.3623 20.5224 18.9429 20.7627C19.5235 20.9929 20.1741 21.108 20.8949 21.108C21.5656 21.108 22.1412 21.033 22.6217 20.8828C23.1122 20.7226 23.5326 20.5525 23.883 20.3723C24.2333 20.1921 24.5236 20.0269 24.7539 19.8768C24.9941 19.7166 25.1993 19.6365 25.3695 19.6365C25.5897 19.6365 25.7599 19.7216 25.88 19.8918L26.6308 20.8678ZM32.6767 9.99651C33.0071 9.62613 33.3574 9.29078 33.7278 8.99047C34.0982 8.69016 34.4886 8.43489 34.899 8.22467C35.3195 8.00444 35.7599 7.83927 36.2204 7.72916C36.6909 7.60903 37.1964 7.54897 37.737 7.54897C38.5678 7.54897 39.2986 7.68912 39.9292 7.96941C40.5699 8.23969 41.1004 8.63009 41.5209 9.14062C41.9513 9.64114 42.2767 10.2468 42.4969 10.9575C42.7171 11.6682 42.8272 12.4541 42.8272 13.315V23H40.1395V13.315C40.1395 12.1638 39.8742 11.2728 39.3436 10.6422C38.8231 10.0015 38.0273 9.68118 36.9561 9.68118C36.1653 9.68118 35.4246 9.87138 34.7338 10.2518C34.0531 10.6322 33.4225 11.1477 32.8419 11.7984V23H30.1541V7.78922H31.7608C32.1412 7.78922 32.3764 7.97441 32.4665 8.3448L32.6767 9.99651ZM55.1435 16.1529C53.9123 16.1929 52.8612 16.293 51.9903 16.4532C51.1294 16.6034 50.4236 16.8036 49.8731 17.0538C49.3325 17.3041 48.9371 17.5994 48.6868 17.9398C48.4466 18.2801 48.3265 18.6605 48.3265 19.0809C48.3265 19.4813 48.3915 19.8267 48.5217 20.117C48.6518 20.4073 48.827 20.6476 49.0472 20.8378C49.2774 21.0179 49.5427 21.1531 49.843 21.2432C50.1534 21.3233 50.4837 21.3633 50.8341 21.3633C51.3045 21.3633 51.735 21.3183 52.1254 21.2282C52.5158 21.1281 52.8812 20.9879 53.2215 20.8077C53.5719 20.6275 53.9022 20.4123 54.2126 20.1621C54.5329 19.9118 54.8432 19.6265 55.1435 19.3062V16.1529ZM46.5096 9.93645C47.3504 9.12561 48.2564 8.51998 49.2274 8.11956C50.1984 7.71915 51.2745 7.51894 52.4557 7.51894C53.3066 7.51894 54.0624 7.65909 54.7231 7.93938C55.3838 8.21967 55.9394 8.61007 56.3898 9.11059C56.8403 9.61111 57.1806 10.2167 57.4109 10.9275C57.6411 11.6382 57.7562 12.419 57.7562 13.2699V23H56.57C56.3097 23 56.1095 22.96 55.9694 22.8799C55.8292 22.7898 55.7191 22.6196 55.639 22.3693L55.3387 20.9279C54.9383 21.2982 54.5479 21.6286 54.1675 21.9189C53.7871 22.1992 53.3867 22.4394 52.9663 22.6396C52.5458 22.8298 52.0954 22.975 51.6149 23.0751C51.1444 23.1852 50.6188 23.2402 50.0382 23.2402C49.4476 23.2402 48.892 23.1602 48.3715 23C47.851 22.8298 47.3955 22.5796 47.0051 22.2492C46.6247 21.9189 46.3194 21.5034 46.0891 21.0029C45.8689 20.4924 45.7588 19.8918 45.7588 19.2011C45.7588 18.6004 45.924 18.0248 46.2543 17.4743C46.5846 16.9137 47.1202 16.4182 47.861 15.9877C48.6017 15.5573 49.5677 15.2069 50.759 14.9366C51.9502 14.6563 53.4117 14.4962 55.1435 14.4561V13.2699C55.1435 12.0887 54.8883 11.1978 54.3777 10.5971C53.8672 9.9865 53.1214 9.68118 52.1404 9.68118C51.4797 9.68118 50.9242 9.76627 50.4737 9.93645C50.0332 10.0966 49.6478 10.2818 49.3175 10.492C48.9972 10.6922 48.7169 10.8774 48.4766 11.0476C48.2464 11.2078 48.0161 11.2879 47.7859 11.2879C47.6057 11.2879 47.4505 11.2428 47.3204 11.1527C47.1903 11.0526 47.0802 10.9325 46.9901 10.7923L46.5096 9.93645ZM74.6466 12.399C73.5855 12.9596 72.7847 13.6403 72.2442 14.4411C71.7136 15.242 71.4483 16.1129 71.4483 17.0538C71.4483 17.7045 71.5685 18.2801 71.8087 18.7806C72.049 19.2711 72.3643 19.6866 72.7547 20.0269C73.1451 20.3673 73.5906 20.6275 74.0911 20.8077C74.5916 20.9779 75.1021 21.063 75.6227 21.063C76.7438 21.063 77.7499 20.8578 78.6408 20.4474C79.5417 20.0369 80.3275 19.4864 80.9982 18.7956L74.6466 12.399ZM88.521 23H85.9233C85.633 23 85.3978 22.965 85.2176 22.8949C85.0374 22.8248 84.8422 22.6797 84.632 22.4594L82.4547 20.2672C81.5138 21.1781 80.4276 21.9039 79.1964 22.4444C77.9751 22.975 76.6287 23.2402 75.1572 23.2402C74.3563 23.2402 73.5705 23.1051 72.7997 22.8348C72.0389 22.5645 71.3532 22.1741 70.7426 21.6636C70.132 21.1431 69.6415 20.5124 69.2711 19.7717C68.9007 19.0309 68.7155 18.195 68.7155 17.264C68.7155 16.5633 68.8306 15.9026 69.0609 15.282C69.3011 14.6513 69.6314 14.0707 70.0519 13.5402C70.4723 13.0096 70.9678 12.5341 71.5384 12.1137C72.109 11.6933 72.7347 11.3329 73.4154 11.0326C72.8047 10.2518 72.3543 9.501 72.064 8.78025C71.7737 8.04949 71.6285 7.29371 71.6285 6.5129C71.6285 5.78214 71.7587 5.09643 72.0189 4.45576C72.2892 3.8151 72.6746 3.25952 73.1751 2.78903C73.6756 2.30854 74.2813 1.93315 74.992 1.66287C75.7128 1.38257 76.5186 1.24243 77.4095 1.24243C78.2003 1.24243 78.9211 1.37256 79.5718 1.63283C80.2224 1.88309 80.783 2.21844 81.2535 2.63888C81.724 3.05932 82.0944 3.54982 82.3647 4.11041C82.6449 4.66098 82.8051 5.23657 82.8452 5.8372L81.1784 6.16754C80.8481 6.24762 80.6028 6.09246 80.4427 5.70206C80.3726 5.44179 80.2575 5.17151 80.0973 4.89121C79.9471 4.61092 79.7469 4.35566 79.4967 4.12542C79.2564 3.89518 78.9611 3.70498 78.6108 3.55483C78.2704 3.40467 77.87 3.3296 77.4095 3.3296C76.909 3.3296 76.4535 3.40968 76.0431 3.56984C75.6427 3.73001 75.2973 3.95524 75.007 4.24555C74.7267 4.52584 74.5115 4.86118 74.3614 5.25159C74.2112 5.63198 74.1361 6.04741 74.1361 6.49788C74.1361 6.84825 74.1762 7.18359 74.2562 7.50393C74.3363 7.82426 74.4615 8.1496 74.6316 8.47994C74.8118 8.81028 75.0371 9.14563 75.3073 9.48598C75.5776 9.82633 75.903 10.1867 76.2833 10.5671L82.4698 16.8586C82.8502 16.1779 83.1555 15.4722 83.3857 14.7414C83.616 14.0007 83.7661 13.2649 83.8362 12.5341C83.8562 12.3439 83.9163 12.1938 84.0164 12.0837C84.1165 11.9736 84.2566 11.9185 84.4368 11.9185H86.0735C86.0635 13.0697 85.8833 14.2009 85.5329 15.312C85.1826 16.4132 84.6771 17.4492 84.0164 18.4202L88.521 23ZM105.743 15.5673C105.743 16.7685 105.593 17.8447 105.293 18.7956C105.002 19.7466 104.567 20.5525 103.986 21.2131C103.416 21.8638 102.71 22.3643 101.869 22.7147C101.028 23.0651 100.062 23.2402 98.9712 23.2402C97.9802 23.2402 96.9691 23.1001 95.938 22.8198C95.9581 22.5295 95.9831 22.2442 96.0131 21.9639C96.0431 21.6736 96.0682 21.3883 96.0882 21.108C96.1082 20.9379 96.1683 20.8027 96.2684 20.7026C96.3785 20.5925 96.5437 20.5374 96.7639 20.5374C96.9441 20.5374 97.1793 20.5825 97.4696 20.6726C97.7699 20.7627 98.1703 20.8077 98.6709 20.8077C99.3316 20.8077 99.9222 20.7076 100.443 20.5074C100.963 20.3072 101.399 19.9969 101.749 19.5764C102.099 19.156 102.365 18.6205 102.545 17.9698C102.735 17.3091 102.83 16.5283 102.83 15.6274V1.48268H105.743V15.5673ZM120.046 13.7354C120.046 13.1147 119.956 12.5492 119.776 12.0386C119.606 11.5181 119.351 11.0726 119.01 10.7022C118.68 10.3218 118.274 10.0315 117.794 9.83134C117.313 9.62112 116.768 9.51601 116.157 9.51601C114.876 9.51601 113.86 9.8914 113.109 10.6422C112.368 11.3829 111.908 12.414 111.728 13.7354H120.046ZM122.208 20.8678C121.878 21.2682 121.483 21.6186 121.022 21.9189C120.562 22.2092 120.066 22.4494 119.536 22.6396C119.015 22.8298 118.475 22.97 117.914 23.0601C117.353 23.1602 116.798 23.2102 116.247 23.2102C115.196 23.2102 114.225 23.035 113.334 22.6847C112.453 22.3243 111.688 21.8038 111.037 21.1231C110.396 20.4323 109.896 19.5815 109.535 18.5704C109.175 17.5594 108.995 16.3982 108.995 15.0868C108.995 14.0257 109.155 13.0347 109.475 12.1137C109.806 11.1928 110.276 10.3969 110.887 9.72623C111.497 9.04552 112.243 8.51497 113.124 8.13458C114.005 7.74417 114.996 7.54897 116.097 7.54897C117.008 7.54897 117.849 7.70413 118.62 8.01446C119.401 8.31477 120.071 8.75522 120.632 9.33583C121.202 9.90642 121.648 10.6172 121.968 11.468C122.289 12.3089 122.449 13.2699 122.449 14.351C122.449 14.7715 122.404 15.0518 122.314 15.1919C122.223 15.332 122.053 15.4021 121.803 15.4021H111.638C111.668 16.3631 111.798 17.199 112.028 17.9097C112.268 18.6205 112.599 19.2161 113.019 19.6966C113.439 20.1671 113.94 20.5224 114.521 20.7627C115.101 20.9929 115.752 21.108 116.473 21.108C117.143 21.108 117.719 21.033 118.199 20.8828C118.69 20.7226 119.11 20.5525 119.461 20.3723C119.811 20.1921 120.101 20.0269 120.332 19.8768C120.572 19.7166 120.777 19.6365 120.947 19.6365C121.167 19.6365 121.338 19.7216 121.458 19.8918L122.208 20.8678ZM135.912 13.7354C135.912 13.1147 135.822 12.5492 135.642 12.0386C135.472 11.5181 135.217 11.0726 134.876 10.7022C134.546 10.3218 134.14 10.0315 133.66 9.83134C133.179 9.62112 132.634 9.51601 132.023 9.51601C130.742 9.51601 129.726 9.8914 128.975 10.6422C128.234 11.3829 127.774 12.414 127.594 13.7354H135.912ZM138.075 20.8678C137.744 21.2682 137.349 21.6186 136.888 21.9189C136.428 22.2092 135.932 22.4494 135.402 22.6396C134.881 22.8298 134.341 22.97 133.78 23.0601C133.22 23.1602 132.664 23.2102 132.113 23.2102C131.062 23.2102 130.091 23.035 129.2 22.6847C128.319 22.3243 127.554 21.8038 126.903 21.1231C126.262 20.4323 125.762 19.5815 125.401 18.5704C125.041 17.5594 124.861 16.3982 124.861 15.0868C124.861 14.0257 125.021 13.0347 125.341 12.1137C125.672 11.1928 126.142 10.3969 126.753 9.72623C127.363 9.04552 128.109 8.51497 128.99 8.13458C129.871 7.74417 130.862 7.54897 131.963 7.54897C132.874 7.54897 133.715 7.70413 134.486 8.01446C135.267 8.31477 135.937 8.75522 136.498 9.33583C137.069 9.90642 137.514 10.6172 137.834 11.468C138.155 12.3089 138.315 13.2699 138.315 14.351C138.315 14.7715 138.27 15.0518 138.18 15.1919C138.09 15.332 137.919 15.4021 137.669 15.4021H127.504C127.534 16.3631 127.664 17.199 127.894 17.9097C128.134 18.6205 128.465 19.2161 128.885 19.6966C129.305 20.1671 129.806 20.5224 130.387 20.7627C130.967 20.9929 131.618 21.108 132.339 21.108C133.009 21.108 133.585 21.033 134.065 20.8828C134.556 20.7226 134.976 20.5525 135.327 20.3723C135.677 20.1921 135.967 20.0269 136.198 19.8768C136.438 19.7166 136.643 19.6365 136.813 19.6365C137.033 19.6365 137.204 19.7216 137.324 19.8918L138.075 20.8678ZM144.361 0.882057V23H141.688V0.882057H144.361Z" fill="black"/>
</svg>
