<svg width="103" height="104" viewBox="0 0 103 104" fill="none" xmlns="http://www.w3.org/2000/svg">
<path d="M51.1247 2.50002C78.4976 2.50002 100.687 24.6625 100.687 51.9999C100.687 79.3376 78.4976 101.5 51.1247 101.5C23.7516 101.5 1.56296 79.3376 1.56296 51.9999C1.56296 24.6624 23.7516 2.50002 51.1247 2.50002Z" fill="white" stroke="#C6C6C5"/>
<path fill-rule="evenodd" clip-rule="evenodd" d="M56.4312 66.7119C55.101 68.0412 53.4938 68.706 51.6064 68.706C49.7222 68.706 48.1139 68.0412 46.7848 66.7119C45.4557 65.3826 44.79 63.7752 44.79 61.8888H37.9737C37.9737 65.6612 39.3028 68.8764 41.9621 71.535C44.6203 74.1937 47.8347 75.523 51.6064 75.523C55.3791 75.523 58.5957 74.1937 61.2539 71.535C63.9132 68.8764 65.2412 65.6612 65.2412 61.8888V27.8033H58.4249V61.8888C58.4249 63.7752 57.7604 65.3826 56.4312 66.7119ZM51.6064 27.8033L48.1993 34.6205H56.7203V27.8033H51.6064Z" fill="black"/>
</svg>
