<svg width="17" height="19" viewBox="0 0 17 19" fill="none" xmlns="http://www.w3.org/2000/svg">
<path fill-rule="evenodd" clip-rule="evenodd" d="M3.70723 10.5833C4.64111 9.0477 3.40725 8.71068 3.21347 7.59845C2.42191 3.0496 8.85396 -0.0564702 12.2227 3.12123C14.5536 5.32233 13.0187 12.0904 9.26015 11.3859C5.66149 10.7147 11.0228 5.32788 8.1511 4.27069C5.81695 3.4106 4.57651 6.89887 5.68338 8.63256C5.03415 11.6141 3.63497 14.4219 4.2021 18.1589C6.03701 16.9212 6.65667 14.5489 7.16467 12.075C8.0865 12.5969 8.58027 13.1387 9.7561 13.2232C14.0927 13.5357 16.5166 9.19499 15.9221 5.18857C15.3966 1.63694 11.5921 -0.171156 7.53253 0.25318C4.32252 0.58714 1.12456 3.00069 0.989902 6.45179C0.909969 8.55877 1.55263 10.1393 3.70723 10.5833Z" fill="#8BC34A"/>
</svg>
