<svg width="42" height="43" viewBox="0 0 42 43" fill="none" xmlns="http://www.w3.org/2000/svg">
<path fill-rule="evenodd" clip-rule="evenodd" d="M20.9998 1.99C32.0455 1.99 41 10.9444 41 21.9901C41 33.0358 32.0455 41.9899 20.9998 41.9899C9.95421 41.9899 0.999684 33.0358 0.999684 21.9901C0.999684 10.9444 9.95421 1.99 20.9998 1.99Z" fill="#CB2027"/>
<path fill-rule="evenodd" clip-rule="evenodd" d="M19.2219 25.5537C18.5464 28.9962 17.722 32.2963 15.2805 34.0201C14.5273 28.8175 16.3874 24.9101 17.2512 20.7617C15.7787 18.3499 17.4285 13.4951 20.5356 14.6916C24.3588 16.163 17.2249 23.6589 22.0136 24.5956C27.0137 25.5728 29.0544 16.1565 25.9539 13.0941C21.475 8.67257 12.9146 12.9933 13.9667 19.3241C14.2229 20.872 15.8673 21.3413 14.6236 23.4772C11.7574 22.8591 10.9012 20.6596 11.0118 17.7263C11.1892 12.9266 15.4447 9.56557 19.7145 9.10062C25.1131 8.51267 30.181 11.0287 30.8806 15.9696C31.6688 21.5461 28.4435 27.5857 22.6705 27.1512C21.105 27.0328 20.448 26.2788 19.2219 25.5537Z" fill="white"/>
</svg>
