<svg width="22" height="20" viewBox="0 0 22 20" fill="none" xmlns="http://www.w3.org/2000/svg">
<path fill-rule="evenodd" clip-rule="evenodd" d="M19.5783 9.06134L15.764 12.8144C13.6586 14.8876 10.2439 14.8876 8.13966 12.8144C7.80793 12.489 7.54844 12.1222 7.31962 11.7437L9.09214 9.99923C9.17643 9.91588 9.28045 9.86793 9.38007 9.81134C9.50269 10.2237 9.71619 10.6136 10.0457 10.9377C11.0978 11.9731 12.8079 11.9718 13.8579 10.9377L17.669 7.18437C18.7211 6.14901 18.7211 4.46574 17.669 3.4307C16.6201 2.39596 14.9089 2.39596 13.8579 3.4307L12.5014 4.7668C11.4022 4.34522 10.2165 4.23143 9.06368 4.3984L11.9507 1.55404C14.0571 -0.51884 17.4708 -0.51884 19.5783 1.55404C21.6825 3.62721 21.6825 6.98817 19.5783 9.06134ZM9.49614 15.2323L8.13966 16.5687C7.08862 17.6028 5.37742 17.6028 4.32639 16.5687C3.27536 15.533 3.27536 13.8494 4.32639 12.8144L8.13966 9.06134C9.19066 8.02538 10.9008 8.02538 11.9507 9.06134C12.2803 9.38452 12.4937 9.77445 12.6186 10.1862C12.7182 10.129 12.8211 10.0822 12.9054 9.99923L14.6768 8.2557C14.4502 7.87593 14.1896 7.51031 13.8579 7.18437C11.7525 5.1118 8.3378 5.1118 6.23247 7.18437L2.42031 10.9377C0.316088 13.0112 0.316088 16.3715 2.42031 18.445C4.52566 20.5173 7.9393 20.5173 10.0457 18.445L12.935 15.6004C11.781 15.7676 10.5953 15.6538 9.49614 15.2323Z" fill="#C8C8C8"/>
</svg>
