<svg width="20" height="19" viewBox="0 0 20 19" fill="none" xmlns="http://www.w3.org/2000/svg">
<path fill-rule="evenodd" clip-rule="evenodd" d="M11 1.25002C15.9705 1.25002 19.9994 5.1605 19.9994 9.98426C19.9994 14.8083 15.9705 18.7188 11 18.7188C6.0295 18.7188 1.99947 14.8083 1.99947 9.98426C1.99947 5.1605 6.0295 1.25002 11 1.25002Z" fill="#8BC34A"/>
<path fill-rule="evenodd" clip-rule="evenodd" d="M17.2262 6.06526C16.7029 6.33525 16.1248 6.53174 15.5073 6.63784C15.0147 6.17843 14.3118 5.89307 13.5334 5.89307C12.04 5.89307 10.8281 6.94872 10.8281 8.24975C10.8281 8.43394 10.8532 8.61414 10.8981 8.78633C8.65159 8.68794 6.65792 7.74945 5.32333 6.32387C5.09013 6.67135 4.95875 7.07603 4.95875 7.50837C4.95875 8.32632 5.4361 9.04771 6.16087 9.47022C5.71746 9.4573 5.30034 9.35091 4.93576 9.1741V9.20362C4.93576 10.3457 5.86855 11.2977 7.10459 11.5148C6.87797 11.5686 6.6393 11.5981 6.39187 11.5981C6.21779 11.5981 6.0492 11.5824 5.88279 11.5548C6.22765 12.4914 7.22613 13.1725 8.40962 13.1925C7.48341 13.8241 6.31743 14.2005 5.05072 14.2005C4.83176 14.2005 4.61608 14.1894 4.40479 14.1682C5.60141 14.8367 7.02359 15.2272 8.55085 15.2272C13.5268 15.2272 16.2474 11.6356 16.2474 8.52096L16.2387 8.21562C16.7686 7.88474 17.2284 7.46932 17.5897 6.99761C17.1047 7.18456 16.5846 7.31156 16.0372 7.36845C16.5956 7.07725 17.0236 6.61446 17.2262 6.06526Z" fill="white"/>
</svg>
